<svg width="145" height="50" viewBox="0 0 145 50" fill="none" xmlns="http://www.w3.org/2000/svg">
<path d="M66.4574 36.1591C64.9304 36.1591 63.6094 35.804 62.4943 35.0938C61.3793 34.3764 60.5164 33.3857 59.9056 32.1215C59.3019 30.8502 59 29.3871 59 27.7323C59 26.0845 59.3019 24.6215 59.9056 23.3431C60.5164 22.0575 61.358 21.0526 62.4304 20.3281C63.51 19.5966 64.7564 19.2308 66.1698 19.2308C67.0576 19.2308 67.9134 19.3942 68.7372 19.7209C69.5611 20.0405 70.2997 20.5341 70.9532 21.2017C71.6137 21.8622 72.1357 22.6968 72.5192 23.7053C72.9027 24.7067 73.0945 25.8928 73.0945 27.2635V28.201H60.3104V26.5284H71.1556C71.1556 25.4773 70.9425 24.5327 70.5164 23.6946C70.0973 22.8494 69.5114 22.1818 68.7586 21.6918C68.0128 21.2017 67.1499 20.9567 66.1698 20.9567C65.1328 20.9567 64.2202 21.2337 63.4319 21.7877C62.6435 22.3416 62.0256 23.0732 61.5782 23.9823C61.1378 24.8914 60.9141 25.8857 60.907 26.9652V27.9666C60.907 29.2664 61.1307 30.4027 61.5782 31.3757C62.0327 32.3416 62.6755 33.0909 63.5064 33.6236C64.3374 34.1563 65.3211 34.4226 66.4574 34.4226C67.2316 34.4226 67.9098 34.3019 68.4922 34.0604C69.0817 33.8189 69.5753 33.4958 69.973 33.0909C70.3779 32.679 70.6833 32.228 70.8892 31.7379L72.6897 32.3239C72.4411 33.0128 72.0327 33.6485 71.4645 34.2308C70.9034 34.8132 70.2003 35.282 69.3551 35.6371C68.5171 35.9851 67.5512 36.1591 66.4574 36.1591ZM83.1646 36.1591C81.8223 36.1591 80.6469 35.804 79.6383 35.0938C78.6298 34.3835 77.8415 33.3928 77.2733 32.1215C76.7122 30.8502 76.4317 29.3693 76.4317 27.679C76.4317 25.9958 76.7122 24.522 77.2733 23.2578C77.8415 21.9865 78.6334 20.9993 79.649 20.2962C80.6646 19.586 81.8472 19.2308 83.1966 19.2308C84.1909 19.2308 85.0183 19.4084 85.6788 19.7635C86.3393 20.1115 86.8685 20.5448 87.2662 21.0632C87.6639 21.5817 87.9729 22.086 88.193 22.576H88.3635V14H90.2705V35.8182H88.4168V32.782H88.193C87.9729 33.2791 87.6604 33.7905 87.2555 34.3161C86.8507 34.8345 86.3145 35.2713 85.6469 35.6264C84.9864 35.9816 84.1589 36.1591 83.1646 36.1591ZM83.3883 34.4226C84.4466 34.4226 85.3486 34.135 86.0943 33.5597C86.8401 32.9773 87.4082 32.1783 87.7989 31.1627C88.1966 30.1399 88.3955 28.9681 88.3955 27.647C88.3955 26.3402 88.2001 25.1861 87.8095 24.1847C87.4189 23.1762 86.8507 22.3878 86.105 21.8196C85.3592 21.2443 84.4537 20.9567 83.3883 20.9567C82.2946 20.9567 81.3713 21.255 80.6185 21.8516C79.8727 22.4411 79.3045 23.2401 78.9139 24.2486C78.5304 25.2571 78.3386 26.3899 78.3386 27.647C78.3386 28.9183 78.5339 30.0654 78.9246 31.0881C79.3152 32.1108 79.8834 32.924 80.6291 33.5277C81.382 34.1243 82.3017 34.4226 83.3883 34.4226ZM106.069 29.5646V19.4546H107.966V35.8182H106.069V33.1016H105.92C105.537 33.9396 104.929 34.6392 104.098 35.2003C103.268 35.7543 102.252 36.0313 101.052 36.0313C100.008 36.0313 99.0808 35.804 98.2712 35.3494C97.4615 34.8878 96.8258 34.2131 96.3642 33.3253C95.9026 32.4375 95.6717 31.3473 95.6717 30.0547V19.4546H97.568V29.9375C97.568 31.2159 97.9445 32.2458 98.6973 33.027C99.4501 33.8012 100.416 34.1882 101.595 34.1882C102.334 34.1882 103.044 34.0107 103.726 33.6556C104.407 33.3004 104.969 32.782 105.409 32.1002C105.849 31.4112 106.069 30.5661 106.069 29.5646ZM117.407 14V35.8182H112.134V14H117.407ZM128.782 35.8182H120.718V14H128.772C130.995 14 132.909 14.4368 134.514 15.3104C136.126 16.1769 137.369 17.4269 138.243 19.0604C139.116 20.6868 139.553 22.6328 139.553 24.8985C139.553 27.1712 139.116 29.1243 138.243 30.7578C137.376 32.3914 136.137 33.6449 134.525 34.5185C132.912 35.385 130.998 35.8182 128.782 35.8182ZM125.991 31.3225H128.58C129.802 31.3225 130.835 31.1165 131.68 30.7046C132.532 30.2855 133.175 29.6073 133.608 28.6698C134.049 27.7252 134.269 26.4681 134.269 24.8985C134.269 23.3289 134.049 22.0789 133.608 21.1485C133.168 20.211 132.518 19.5362 131.659 19.1243C130.807 18.7053 129.755 18.4958 128.505 18.4958H125.991V31.3225Z" fill="black"/>
<path d="M24.9998 0C11.1929 0 0 11.193 0 24.9999C0 38.807 11.1929 50 24.9998 50C38.8069 50 49.9998 38.807 49.9998 24.9999C49.9998 11.193 38.8069 0 24.9998 0Z" fill="#171717"/>
<path d="M34.1808 33.9071C34.1808 34.8758 33.3953 35.6613 32.4265 35.6613H17.5299C16.5609 35.6613 15.7756 34.8758 15.7756 33.9071V28.9291H34.1808V33.9071Z" fill="white"/>
<path d="M34.1808 26.7734H15.7756V22.8727H30.3185V19.9959C30.3185 17.0067 27.8867 14.5751 24.8978 14.5751C21.9086 14.5751 19.4768 17.0067 19.4768 19.9959H16.6914C16.6914 15.4708 20.3727 11.7895 24.8978 11.7895C29.4228 11.7895 33.1039 15.4708 33.1039 19.9959V22.8727H33.2216H34.1808V26.7734Z" fill="white"/>
</svg>
