<?xml version="1.0" encoding="utf-8"?>
<!-- Generator: Adobe Illustrator 15.0.0, SVG Export Plug-In . SVG Version: 6.00 Build 0)  -->
<!DOCTYPE svg PUBLIC "-//W3C//DTD SVG 1.1//EN" "http://www.w3.org/Graphics/SVG/1.1/DTD/svg11.dtd">
<svg version="1.1" id="Layer_1" xmlns="http://www.w3.org/2000/svg" xmlns:xlink="http://www.w3.org/1999/xlink" x="0px" y="0px"
	 width="841.89px" height="595.28px" viewBox="0 0 841.89 595.28" enable-background="new 0 0 841.89 595.28" xml:space="preserve">
<g>
	<path fill="#E52420" d="M266.86,216.877c0.463,17.363,2.199,34.265,5.209,50.7c3.936,23.152,9.258,40.282,15.975,51.396
		c3.473,6.023,7.293,9.844,11.461,11.461c4.166,1.854,8.561,1.16,13.195-2.086c0.922-0.695,1.736-0.574,2.432,0.348
		c0.693,0.93,0.574,1.738-0.348,2.43c-5.789,3.939-11.346,4.742-16.67,2.434c-4.861-1.852-9.26-6.133-13.193-12.85
		c-6.947-11.576-12.389-29.052-16.322-52.438c-3.473-20.602-5.211-40.976-5.211-61.117c0-9.258,0.463-17.131,1.391-23.615
		c0.922-6.712,2.311-11.34,4.166-13.89c2.779-3.7,5.611-6.078,8.51-7.119c2.891-1.042,5.609-0.75,8.16,0.869
		c3.934,2.776,7.059,8.453,9.375,17.016c2.084,7.64,2.893,15.278,2.432,22.919c0,3.939-0.467,7.178-1.389,9.723
		c-0.928,3.012-2.318,5.096-4.168,6.251c-1.389,0.929-3.473,1.39-6.25,1.39c-2.084,0-4.516-0.348-7.293-1.042
		C276.239,219.427,272.417,218.498,266.86,216.877z M266.86,213.403l12.154,3.125c2.545,0.467,4.742,0.695,6.6,0.695
		c2.082,0,3.473-0.229,4.166-0.695c1.156-0.693,2.084-2.197,2.779-4.514c0.922-2.312,1.389-5.209,1.389-8.682
		c0.461-7.406-0.234-14.813-2.084-22.226c-2.084-7.639-4.861-12.501-8.334-14.584c-1.389-1.156-3.012-1.39-4.861-0.695
		c-2.084,0.695-4.4,2.664-6.945,5.904c-1.623,2.083-2.838,6.25-3.646,12.501c-0.814,6.25-1.217,13.891-1.217,22.92V213.403z"/>
	<path fill="#68B42E" d="M368.839,163.051c-0.467-25.465-0.693-47.924-0.693-67.369c0-1.156,0.574-1.736,1.734-1.736
		c1.156,0,1.738,0.58,1.738,1.736c0,19.679,0.227,42.251,0.693,67.717v1.389c1.389,102.79,2.084,159.279,2.084,169.465
		c0,1.16-0.58,1.736-1.736,1.736c-0.467,0-0.928-0.232-1.389-0.693c-4.861-3.701-8.51-6.6-10.939-8.684s-5.27-5.035-8.508-8.855
		c-3.246-3.819-5.904-7.814-7.986-11.98c-4.168-9.489-7.354-21.409-9.551-35.767c-2.203-14.354-2.719-28.591-1.562-42.714
		c1.389-15.509,4.975-28.998,10.766-40.457C349.274,175.378,357.728,167.45,368.839,163.051z M370.923,330.777
		c0-10.416-0.695-65.052-2.084-163.906c-18.986,8.105-29.865,28.36-32.643,60.771c-1.162,13.662-0.695,27.553,1.389,41.672
		c2.084,14.124,5.322,25.816,9.723,35.073C351.009,312.494,358.882,321.289,370.923,330.777z"/>
	<path fill="#ED6E2A" d="M414.327,163.398c-1.389,9.723-2.256,21.242-2.604,34.552c-0.348,13.314-0.467,23.907-0.348,31.774
		c0.115,7.874,0.576,20.663,1.389,38.374c0.809,17.71,1.33,28.421,1.562,32.122c0.463,11.112,1.27,18.871,2.432,23.266
		c1.389,3.939,3.125,6.832,5.209,8.68c2.311,2.086,5.438,2.666,9.377,1.738c1.615-0.229,3.125-2.43,4.514-6.6
		c1.389-4.166,2.658-9.949,3.82-17.363v-0.346V308.9c2.082-13.425,3.238-31.133,3.473-53.131
		c0.461-18.979,0.348-37.731-0.348-56.256c-0.695-18.52-1.623-30.44-2.777-35.77c-0.234-1.154,0.227-1.85,1.389-2.083
		c1.154-0.229,1.85,0.233,2.084,1.39c1.154,5.789,2.082,17.943,2.777,36.463c0.695,18.524,0.809,37.276,0.348,56.256
		c-0.234,22.458-1.389,40.517-3.473,54.172c0,0.695,0.113,2.78,0.348,6.254c0,3.01,0.113,5.326,0.346,6.943
		c0.924,4.402,3.127,7.064,6.598,7.986c1.156,0.236,1.617,0.93,1.391,2.086c-0.234,1.16-0.928,1.621-2.084,1.389
		c-5.096-1.389-8.221-4.975-9.377-10.766c-0.467,1.621-0.928,3.125-1.389,4.514c-1.855,5.328-4.166,8.334-6.945,9.031
		c-4.861,1.152-9.029,0.346-12.502-2.432c-2.549-2.312-4.514-5.785-5.902-10.42c-1.389-4.627-2.318-12.729-2.779-24.307
		c-0.232-3.474-0.754-14.064-1.562-31.776c-0.809-17.709-1.27-30.559-1.389-38.545c-0.113-7.988,0-18.693,0.348-32.123
		c0.348-13.424,1.215-25.117,2.604-35.074c0.229-1.155,0.922-1.616,2.084-1.388C414.095,161.547,414.556,162.241,414.327,163.398z"
		/>
	<path fill="#FFFFFF" d="M496.624,97.759c-2.316,6.188-3.244,15.243-2.777,27.155c0,2.525,0.229,7.107,0.693,13.752
		c0.463,6.649,0.695,11.574,0.695,14.781c0,19.71,0.287,49.156,0.869,88.343c0.574,39.188,0.867,68.638,0.867,88.345
		c0,1.148-0.58,1.719-1.736,1.719c-1.16,0-1.736-0.57-1.736-1.719c0-19.707-0.293-49.157-0.869-88.345
		c-0.58-39.187-0.867-68.633-0.867-88.343c0-3.207-0.232-8.132-0.693-14.781c-0.469-6.645-0.695-11.227-0.695-13.752
		c-0.467-12.143,0.461-21.654,2.777-28.529c0.461-0.914,1.215-1.203,2.258-0.859C496.45,95.869,496.853,96.615,496.624,97.759z"/>
	<path fill="#FFFFFF" d="M537.948,92.258c16.668,10.312,29.518,33.918,38.545,70.814c3.701,15.355,6.133,30.712,7.293,46.062
		c0.924,15.357,0.576,27.846-1.043,37.469c-4.398,26.588-18.637,55.806-42.711,87.655c-0.695,0.922-1.51,1.035-2.432,0.346
		c-0.928-0.686-1.041-1.486-0.348-2.408l1.736-2.404c0-19.476-0.293-48.813-0.867-88.001c-0.58-39.187-0.869-68.633-0.869-88.343
		c0-3.207-0.232-8.132-0.693-14.781c-0.467-6.645-0.695-11.227-0.695-13.752c-0.467-11.912,0.461-21.311,2.777-28.186
		c-0.928-0.457-1.855-1.033-2.777-1.721c-0.928-0.455-1.102-1.202-0.521-2.234C535.917,91.744,536.786,91.57,537.948,92.258z
		 M542.462,325.322c20.604-28.644,32.871-55.112,36.811-79.407c1.617-9.393,1.91-21.71,0.867-36.953
		c-1.041-15.237-3.299-30.304-6.771-45.202c-7.639-31.164-18.291-52.707-31.947-64.627c-1.855,6.188-2.551,14.781-2.084,25.781
		c0,2.525,0.229,7.107,0.695,13.752c0.461,6.649,0.693,11.574,0.693,14.781c0,19.71,0.289,48.64,0.867,86.797
		C542.169,278.399,542.462,306.76,542.462,325.322z"/>
	<g>
		<path fill="#FFFFFF" d="M228.3,83.605c23.535-15.121,70.723-24.692,141.443-28.707c44.754-2.779,87.184-1.854,127.303,2.777
			c40.055,4.326,70.721,12.35,91.932,24.076c40.057,21.921,62.434,45.072,67.189,69.453c7.07,24.699,7.895,52.853,1.059,87.651
			c-13.643,69.452-38.801,93.39-57.637,109.13c-9.445,9.262-21.221,16.83-35.361,22.689c-1.574,0.643,0,0,0.15,31.404
			c0.01,1.93,45.787,2.105,45.82,4.027c0.035,1.943,0.068,3.885,0.102,5.818c0.02,0.967-45.682,3.68-45.666,4.641
			c0.822,47.49-1.25,123.082-2.713,123.574c0,0-14.301,1.498-15.047,1.736c-1.5,0.479-23.213-1.641-34.727-3.473
			c0,0-3.506-7.074-3.473-8.104c0.049-1.588,28.303,1.523,39.936-1.158c0,0-0.596-8.557-0.574-9.494l-39.941-4.396
			c0,0,0.174-2.629,0.193-4.215c0.035-2.592,39.562,1,39.59-1.807c0.141-14.744,3.264-73.404,3.209-91.516
			c-0.006-1.732-42.064-5.205-42.072-6.945c-0.004-1.35-0.012-2.701-0.018-4.053c-0.01-1.93,42.031-2.125,42.018-4.057
			c-0.338-53.246-1.346-26.484-4.088-25.916c-11.195,2.314-36.926,7.053-49.881,7.822c-47.189,2.775-90.787,1.076-130.842-5.092
			c-30.664-4.629-57.787-11.576-81.322-20.836c-33.047-13.582-54.258-27.16-63.652-40.748
			c-18.896-29.631-31.828-70.378-38.9-122.235c-4.748-29.937-2.375-53.552,7.072-70.843C196.479,105.988,209.405,92.25,228.3,83.605
			z M274.271,78.975c0,0-33.514,11.715-47.404,31.779c-6.943,10.029-11.549,56.506-9.176,84.901
			c4.697,48.466,17.68,89.211,38.9,122.235c9.395,12.965,30.604,26.09,63.65,39.357c21.213,8.645,44.754,14.975,70.723,18.984
			c30.604,4.328,61.268,5.557,91.932,3.703c16.463-0.926,31.83-4.473,45.969-10.648c14.143-5.557,27.076-12.963,38.902-22.225
			c16.463-15.432,62.055-40.298,53.039-195.857c-1.402-24.197-27.133-46.605-67.189-68.525
			c-18.895-10.491-45.971-17.748-81.33-21.764c-25.967-3.082-55.414-3.703-88.402-1.852
			C336.704,61.843,300.179,68.484,274.271,78.975z"/>
	</g>
</g>
</svg>
