<?xml version="1.0" encoding="utf-8"?>
<!-- Generator: Adobe Illustrator 15.0.0, SVG Export Plug-In . SVG Version: 6.00 Build 0)  -->
<!DOCTYPE svg PUBLIC "-//W3C//DTD SVG 1.1//EN" "http://www.w3.org/Graphics/SVG/1.1/DTD/svg11.dtd">
<svg version="1.1" id="Layer_1" xmlns="http://www.w3.org/2000/svg" xmlns:xlink="http://www.w3.org/1999/xlink" x="0px" y="0px"
	 width="841.89px" height="595.28px" viewBox="0 0 841.89 595.28" enable-background="new 0 0 841.89 595.28" xml:space="preserve">
<g>
	<path fill="#E52420" d="M266.861,216.877c0.462,17.363,2.198,34.265,5.209,50.7c3.935,23.152,9.258,40.283,15.975,51.396
		c3.473,6.023,7.293,9.844,11.461,11.461c4.166,1.854,8.561,1.16,13.195-2.086c0.922-0.695,1.736-0.574,2.431,0.348
		c0.694,0.93,0.575,1.738-0.347,2.43c-5.79,3.939-11.346,4.742-16.67,2.434c-4.861-1.852-9.261-6.133-13.194-12.85
		c-6.946-11.576-12.389-29.051-16.322-52.438c-3.473-20.602-5.21-40.976-5.21-61.118c0-9.257,0.462-17.13,1.391-23.615
		c0.922-6.711,2.311-11.34,4.166-13.89c2.778-3.7,5.611-6.077,8.509-7.118c2.892-1.042,5.61-0.75,8.16,0.868
		c3.935,2.777,7.06,8.453,9.376,17.016c2.084,7.639,2.893,15.279,2.432,22.919c0,3.939-0.467,7.178-1.389,9.723
		c-0.929,3.011-2.318,5.096-4.168,6.25c-1.389,0.928-3.473,1.39-6.251,1.39c-2.083,0-4.515-0.348-7.292-1.042
		C276.239,219.426,272.418,218.498,266.861,216.877z M266.861,213.404l12.154,3.124c2.545,0.468,4.742,0.696,6.599,0.696
		c2.083,0,3.473-0.228,4.167-0.696c1.156-0.693,2.084-2.197,2.778-4.513c0.923-2.312,1.39-5.21,1.39-8.682
		c0.461-7.407-0.234-14.814-2.084-22.226c-2.084-7.639-4.861-12.501-8.334-14.585c-1.389-1.156-3.012-1.389-4.861-0.695
		c-2.084,0.695-4.401,2.664-6.946,5.904c-1.622,2.083-2.837,6.25-3.646,12.501c-0.813,6.25-1.216,13.891-1.216,22.919V213.404z"/>
	<path fill="#68B42E" d="M368.84,163.051c-0.467-25.465-0.694-47.923-0.694-67.37c0-1.156,0.575-1.736,1.735-1.736
		c1.156,0,1.737,0.58,1.737,1.736c0,19.679,0.228,42.251,0.694,67.717v1.389c1.389,102.79,2.084,159.279,2.084,169.465
		c0,1.16-0.581,1.736-1.736,1.736c-0.467,0-0.928-0.232-1.389-0.693c-4.862-3.701-8.51-6.6-10.939-8.684
		c-2.431-2.084-5.27-5.035-8.508-8.855c-3.246-3.819-5.904-7.814-7.987-11.98c-4.167-9.489-7.353-21.41-9.55-35.767
		c-2.203-14.353-2.719-28.59-1.562-42.713c1.389-15.509,4.975-28.998,10.766-40.457C349.274,175.378,357.728,167.45,368.84,163.051z
		 M370.924,330.777c0-10.416-0.695-65.051-2.084-163.907c-18.986,8.105-29.865,28.361-32.643,60.771
		c-1.162,13.662-0.695,27.552,1.389,41.671c2.084,14.125,5.322,25.817,9.723,35.074C351.01,312.494,358.883,321.289,370.924,330.777
		z"/>
	<path fill="#ED6E2A" d="M414.328,163.398c-1.389,9.723-2.257,21.243-2.604,34.552c-0.348,13.315-0.468,23.908-0.348,31.775
		c0.114,7.874,0.576,20.663,1.389,38.374c0.809,17.71,1.33,28.421,1.562,32.123c0.462,11.112,1.27,18.871,2.432,23.266
		c1.389,3.939,3.125,6.832,5.208,8.68c2.312,2.086,5.438,2.666,9.377,1.738c1.616-0.229,3.126-2.43,4.514-6.6
		c1.39-4.166,2.659-9.949,3.821-17.363v-0.346V308.9c2.082-13.424,3.238-31.133,3.473-53.131c0.461-18.98,0.347-37.732-0.348-56.256
		c-0.695-18.52-1.623-30.44-2.778-35.769c-0.234-1.155,0.228-1.851,1.39-2.083c1.154-0.229,1.85,0.233,2.083,1.39
		c1.155,5.789,2.083,17.943,2.777,36.463c0.695,18.524,0.81,37.276,0.349,56.256c-0.234,22.458-1.39,40.517-3.473,54.172
		c0,0.695,0.113,2.78,0.347,6.254c0,3.01,0.114,5.326,0.347,6.943c0.923,4.402,3.126,7.064,6.598,7.986
		c1.156,0.236,1.617,0.93,1.391,2.086c-0.234,1.16-0.928,1.621-2.085,1.389c-5.095-1.389-8.22-4.975-9.376-10.766
		c-0.467,1.621-0.928,3.125-1.389,4.514c-1.855,5.328-4.167,8.334-6.945,9.031c-4.862,1.152-9.029,0.346-12.502-2.432
		c-2.55-2.312-4.515-5.785-5.902-10.42c-1.39-4.627-2.318-12.729-2.779-24.307c-0.232-3.474-0.754-14.064-1.562-31.776
		c-0.809-17.71-1.27-30.559-1.389-38.546c-0.113-7.987,0-18.692,0.348-32.122c0.347-13.425,1.215-25.118,2.604-35.075
		c0.229-1.155,0.922-1.616,2.084-1.388C414.096,161.547,414.557,162.241,414.328,163.398z"/>
	<path fill="#FFFFFF" d="M496.625,97.759c-2.316,6.188-3.244,15.244-2.778,27.156c0,2.524,0.229,7.107,0.694,13.751
		c0.462,6.65,0.695,11.574,0.695,14.781c0,19.71,0.287,49.157,0.868,88.343c0.575,39.187,0.868,68.638,0.868,88.345
		c0,1.148-0.58,1.719-1.736,1.719c-1.161,0-1.736-0.57-1.736-1.719c0-19.707-0.293-49.158-0.869-88.345
		c-0.58-39.187-0.867-68.633-0.867-88.343c0-3.207-0.233-8.131-0.694-14.781c-0.468-6.644-0.695-11.227-0.695-13.751
		c-0.466-12.143,0.462-21.655,2.778-28.53c0.461-0.914,1.215-1.203,2.258-0.859C496.451,95.869,496.854,96.615,496.625,97.759z"/>
	<path fill="#FFFFFF" d="M537.949,92.258c16.668,10.312,29.518,33.918,38.545,70.813c3.701,15.356,6.132,30.713,7.293,46.062
		c0.923,15.358,0.576,27.845-1.043,37.469c-4.398,26.587-18.637,55.806-42.712,87.655c-0.695,0.922-1.509,1.035-2.431,0.346
		c-0.928-0.686-1.041-1.486-0.348-2.408l1.736-2.404c0-19.476-0.293-48.814-0.868-88.001c-0.58-39.187-0.868-68.633-0.868-88.343
		c0-3.207-0.232-8.131-0.693-14.781c-0.468-6.644-0.696-11.227-0.696-13.751c-0.466-11.912,0.462-21.312,2.778-28.187
		c-0.928-0.457-1.855-1.032-2.778-1.72c-0.927-0.455-1.101-1.203-0.521-2.235C535.918,91.744,536.787,91.571,537.949,92.258z
		 M542.463,325.322c20.604-28.643,32.871-55.112,36.81-79.407c1.618-9.394,1.91-21.71,0.868-36.953
		c-1.041-15.238-3.299-30.304-6.771-45.203c-7.639-31.164-18.291-52.707-31.947-64.626c-1.856,6.188-2.551,14.781-2.085,25.781
		c0,2.524,0.229,7.107,0.695,13.751c0.462,6.65,0.694,11.574,0.694,14.781c0,19.71,0.288,48.64,0.867,86.797
		C542.17,278.399,542.463,306.76,542.463,325.322z"/>
	<g>
		<path fill="#FFFFFF" d="M228.301,83.605c23.534-15.121,70.723-24.692,141.443-28.707c44.754-2.779,87.184-1.853,127.303,2.777
			c40.055,4.326,70.721,12.35,91.932,24.077c40.057,21.921,62.434,45.072,67.189,69.453c7.07,24.699,7.894,52.852,1.059,87.651
			c-13.643,69.452-38.802,93.39-57.637,109.13c-9.445,9.262-21.222,16.83-35.361,22.689c-1.574,0.643,0,0,0.15,31.404
			c0.01,1.93,45.787,2.105,45.82,4.027c0.035,1.943,0.068,3.885,0.102,5.818c0.019,0.967-45.682,3.68-45.666,4.641
			c0.821,47.49-1.25,123.082-2.713,123.574c0,0-14.302,1.498-15.048,1.736c-1.5,0.479-23.212-1.641-34.727-3.473
			c0,0-3.505-7.074-3.472-8.104c0.049-1.588,28.303,1.523,39.935-1.158c0,0-0.595-8.557-0.574-9.494l-39.94-4.396
			c0,0,0.174-2.629,0.193-4.215c0.034-2.592,39.562,1,39.59-1.807c0.141-14.744,3.264-73.404,3.208-91.516
			c-0.006-1.732-42.063-5.205-42.071-6.945c-0.004-1.35-0.012-2.701-0.018-4.053c-0.01-1.93,42.031-2.125,42.018-4.057
			c-0.338-53.246-1.346-26.484-4.088-25.916c-11.195,2.314-36.926,7.053-49.881,7.822c-47.189,2.775-90.787,1.076-130.842-5.092
			c-30.664-4.629-57.788-11.576-81.323-20.836c-33.047-13.582-54.258-27.16-63.651-40.748
			c-18.896-29.631-31.829-70.377-38.9-122.235c-4.748-29.937-2.375-53.551,7.071-70.842
			C196.48,105.988,209.406,92.25,228.301,83.605z M274.271,78.975c0,0-33.513,11.715-47.403,31.78
			c-6.943,10.028-11.55,56.505-9.176,84.901c4.697,48.466,17.68,89.211,38.9,122.235c9.395,12.965,30.604,26.09,63.65,39.357
			c21.212,8.645,44.754,14.975,70.722,18.984c30.604,4.328,61.269,5.557,91.933,3.703c16.463-0.926,31.829-4.473,45.969-10.648
			c14.143-5.557,27.076-12.963,38.902-22.225c16.462-15.432,62.055-40.298,53.039-195.857c-1.402-24.197-27.133-46.605-67.19-68.526
			c-18.895-10.491-45.97-17.748-81.33-21.763c-25.967-3.082-55.414-3.704-88.401-1.852C336.705,61.843,300.18,68.484,274.271,78.975
			z"/>
	</g>
	<g>
		<path fill="#E52420" d="M293.115,427.781h16.283v2.748h-13.319v6.812h12.312v2.598h-12.312v7.605h13.548v2.674h-16.512V427.781z"
			/>
		<path fill="#E52420" d="M313.873,429.293h2.781v4.566h2.611v2.246h-2.611v10.676c0,0.57,0.192,0.953,0.58,1.146
			c0.213,0.111,0.57,0.168,1.068,0.168c0.133,0,0.275-0.004,0.428-0.01c0.153-0.008,0.331-0.025,0.535-0.053v2.186
			c-0.316,0.092-0.645,0.158-0.985,0.197c-0.341,0.041-0.71,0.062-1.107,0.062c-1.283,0-2.153-0.328-2.612-0.986
			c-0.457-0.656-0.688-1.51-0.688-2.559v-10.828h-2.215v-2.246h2.215V429.293z"/>
		<path fill="#E52420" d="M322.564,429.293h2.78v4.566h2.612v2.246h-2.612v10.676c0,0.57,0.192,0.953,0.58,1.146
			c0.214,0.111,0.57,0.168,1.069,0.168c0.133,0,0.275-0.004,0.428-0.01c0.152-0.008,0.33-0.025,0.535-0.053v2.186
			c-0.316,0.092-0.645,0.158-0.986,0.197c-0.341,0.041-0.71,0.062-1.107,0.062c-1.283,0-2.153-0.328-2.611-0.986
			c-0.458-0.656-0.688-1.51-0.688-2.559v-10.828h-2.215v-2.246h2.215V429.293z"/>
		<path fill="#68B42E" d="M339.396,427.781h2.795v3.115h-2.795V427.781z M339.396,433.936h2.795v16.283h-2.795V433.936z"/>
		<path fill="#68B42E" d="M346.346,433.859h2.612v2.322c0.774-0.957,1.594-1.645,2.46-2.062c0.865-0.418,1.827-0.627,2.887-0.627
			c2.321,0,3.889,0.811,4.704,2.43c0.448,0.885,0.672,2.154,0.672,3.803v10.494h-2.796v-10.311c0-0.998-0.146-1.803-0.442-2.414
			c-0.489-1.018-1.374-1.527-2.657-1.527c-0.652,0-1.187,0.066-1.604,0.199c-0.754,0.225-1.416,0.672-1.986,1.344
			c-0.458,0.541-0.756,1.098-0.894,1.674c-0.138,0.574-0.206,1.396-0.206,2.467v8.568h-2.75V433.859z"/>
		<path fill="#68B42E" d="M363.82,427.781h2.749v22.438h-2.749V427.781z"/>
		<path fill="#68B42E" d="M382.547,435.492c1.445,1.404,2.168,3.469,2.168,6.195c0,2.635-0.637,4.812-1.911,6.533
			c-1.274,1.719-3.251,2.578-5.931,2.578c-2.234,0-4.008-0.76-5.323-2.281c-1.314-1.521-1.972-3.564-1.972-6.127
			c0-2.748,0.693-4.936,2.078-6.562c1.385-1.629,3.246-2.441,5.582-2.441C379.33,433.387,381.1,434.088,382.547,435.492z
			 M380.839,446.363c0.67-1.377,1.005-2.91,1.005-4.6c0-1.525-0.242-2.766-0.725-3.721c-0.766-1.506-2.085-2.26-3.957-2.26
			c-1.662,0-2.87,0.643-3.625,1.924c-0.756,1.281-1.133,2.826-1.133,4.637c0,1.74,0.377,3.189,1.133,4.348
			c0.755,1.16,1.953,1.74,3.594,1.74C378.934,448.432,380.17,447.742,380.839,446.363z"/>
		<path fill="#68B42E" d="M397.186,434.516c0.518,0.357,1.045,0.877,1.582,1.559v-2.062h2.535v14.877
			c0,2.078-0.305,3.717-0.913,4.92c-1.137,2.219-3.283,3.328-6.438,3.328c-1.756,0-3.232-0.395-4.431-1.184
			s-1.868-2.023-2.011-3.703h2.796c0.132,0.732,0.395,1.299,0.79,1.695c0.617,0.611,1.59,0.916,2.916,0.916
			c2.098,0,3.469-0.742,4.117-2.23c0.385-0.875,0.562-2.438,0.531-4.688c-0.547,0.834-1.207,1.455-1.977,1.863
			c-0.771,0.406-1.791,0.609-3.059,0.609c-1.766,0-3.31-0.627-4.633-1.885c-1.324-1.258-1.986-3.338-1.986-6.24
			c0-2.738,0.668-4.877,2.002-6.416c1.333-1.537,2.943-2.305,4.83-2.305C395.115,433.57,396.231,433.885,397.186,434.516z
			 M397.521,437.465c-0.83-0.979-1.89-1.467-3.176-1.467c-1.926,0-3.242,0.906-3.951,2.719c-0.375,0.967-0.562,2.234-0.562,3.803
			c0,1.844,0.373,3.246,1.117,4.209c0.744,0.961,1.745,1.443,3.002,1.443c1.965,0,3.348-0.891,4.147-2.674
			c0.446-1.008,0.669-2.184,0.669-3.527C398.768,439.943,398.352,438.441,397.521,437.465z"/>
		<path fill="#68B42E" d="M414.582,434.516c0.518,0.357,1.045,0.877,1.583,1.559v-2.062h2.536v14.877
			c0,2.078-0.305,3.717-0.914,4.92c-1.137,2.219-3.283,3.328-6.439,3.328c-1.756,0-3.232-0.395-4.43-1.184s-1.867-2.023-2.01-3.703
			h2.795c0.131,0.732,0.395,1.299,0.79,1.695c0.618,0.611,1.59,0.916,2.917,0.916c2.096,0,3.468-0.742,4.116-2.23
			c0.385-0.875,0.562-2.438,0.532-4.688c-0.549,0.834-1.207,1.455-1.979,1.863c-0.771,0.406-1.79,0.609-3.059,0.609
			c-1.764,0-3.309-0.627-4.633-1.885c-1.322-1.258-1.984-3.338-1.984-6.24c0-2.738,0.666-4.877,2-6.416
			c1.334-1.537,2.944-2.305,4.831-2.305C412.514,433.57,413.629,433.885,414.582,434.516z M414.919,437.465
			c-0.831-0.979-1.89-1.467-3.177-1.467c-1.924,0-3.241,0.906-3.95,2.719c-0.375,0.967-0.562,2.234-0.562,3.803
			c0,1.844,0.372,3.246,1.117,4.209c0.745,0.961,1.745,1.443,3.001,1.443c1.965,0,3.348-0.891,4.148-2.674
			c0.445-1.008,0.669-2.184,0.669-3.527C416.165,439.943,415.75,438.441,414.919,437.465z"/>
		<path fill="#ED6E2A" d="M432.859,428.865c0.643-0.938,1.879-1.406,3.712-1.406c0.173,0,0.352,0.006,0.534,0.016
			c0.184,0.01,0.393,0.025,0.627,0.047v2.504c-0.289-0.02-0.497-0.033-0.625-0.037c-0.129-0.006-0.25-0.008-0.363-0.008
			c-0.845,0-1.35,0.217-1.514,0.648c-0.165,0.434-0.248,1.535-0.248,3.307h2.75v2.17h-2.75v14.113h-2.719v-14.113h-2.275v-2.17
			h2.275v-2.566C432.305,430.23,432.504,429.395,432.859,428.865z"/>
		<path fill="#ED6E2A" d="M452.121,435.492c1.445,1.404,2.168,3.469,2.168,6.195c0,2.635-0.637,4.812-1.911,6.533
			c-1.274,1.719-3.251,2.578-5.931,2.578c-2.234,0-4.008-0.76-5.323-2.281c-1.314-1.521-1.972-3.564-1.972-6.127
			c0-2.748,0.693-4.936,2.078-6.562c1.385-1.629,3.246-2.441,5.582-2.441C448.904,433.387,450.674,434.088,452.121,435.492z
			 M450.413,446.363c0.67-1.377,1.005-2.91,1.005-4.6c0-1.525-0.242-2.766-0.725-3.721c-0.766-1.506-2.085-2.26-3.957-2.26
			c-1.662,0-2.87,0.643-3.625,1.924c-0.756,1.281-1.133,2.826-1.133,4.637c0,1.74,0.377,3.189,1.133,4.348
			c0.755,1.16,1.953,1.74,3.594,1.74C448.508,448.432,449.744,447.742,450.413,446.363z M443.018,428.146h2.855v3.178h-2.855
			V428.146z M448.058,428.146h2.856v3.178h-2.856V428.146z"/>
		<path fill="#ED6E2A" d="M457.742,433.859h2.611v2.826c0.214-0.551,0.738-1.219,1.573-2.008s1.797-1.186,2.887-1.186
			c0.051,0,0.138,0.006,0.26,0.016c0.122,0.012,0.331,0.031,0.626,0.062v2.9c-0.163-0.029-0.312-0.051-0.451-0.061
			c-0.137-0.01-0.287-0.016-0.449-0.016c-1.386,0-2.449,0.445-3.193,1.338c-0.743,0.891-1.115,1.916-1.115,3.076v9.41h-2.748
			V433.859z"/>
		<path fill="#ED6E2A" d="M476.773,427.705h2.749v8.369c0.651-0.824,1.237-1.404,1.757-1.74c0.886-0.582,1.99-0.871,3.314-0.871
			c2.372,0,3.98,0.83,4.826,2.49c0.459,0.906,0.688,2.162,0.688,3.771v10.494h-2.826v-10.311c0-1.201-0.152-2.082-0.458-2.643
			c-0.499-0.896-1.436-1.344-2.81-1.344c-1.141,0-2.175,0.393-3.102,1.176c-0.926,0.785-1.39,2.266-1.39,4.445v8.676h-2.749V427.705
			z"/>
		<path fill="#ED6E2A" d="M504.275,434.311c1.082,0.545,1.907,1.25,2.474,2.115c0.547,0.824,0.911,1.787,1.093,2.887
			c0.162,0.754,0.244,1.955,0.244,3.605h-11.899c0.051,1.664,0.44,2.998,1.167,4.004c0.728,1.006,1.854,1.51,3.379,1.51
			c1.426,0,2.562-0.477,3.41-1.428c0.476-0.553,0.812-1.191,1.01-1.918h2.703c-0.07,0.602-0.308,1.271-0.709,2.008
			c-0.402,0.74-0.852,1.342-1.347,1.811c-0.829,0.814-1.854,1.365-3.077,1.65c-0.657,0.162-1.4,0.244-2.229,0.244
			c-2.023,0-3.738-0.74-5.146-2.223s-2.11-3.557-2.11-6.225c0-2.627,0.709-4.76,2.126-6.398c1.417-1.641,3.269-2.461,5.556-2.461
			C502.074,433.492,503.191,433.766,504.275,434.311z M505.26,440.732c-0.111-1.191-0.369-2.143-0.773-2.855
			c-0.746-1.324-1.994-1.986-3.74-1.986c-1.252,0-2.303,0.457-3.15,1.367c-0.848,0.912-1.297,2.07-1.348,3.475H505.26z"/>
		<path fill="#ED6E2A" d="M511.645,427.781h2.749v22.438h-2.749V427.781z"/>
		<path fill="#ED6E2A" d="M527.285,440.318c0.631-0.082,1.055-0.346,1.268-0.793c0.122-0.246,0.184-0.598,0.184-1.059
			c0-0.939-0.333-1.621-0.999-2.047c-0.665-0.424-1.618-0.637-2.858-0.637c-1.432,0-2.449,0.391-3.049,1.168
			c-0.334,0.43-0.553,1.068-0.654,1.918h-2.566c0.051-2.021,0.704-3.428,1.961-4.219c1.256-0.793,2.713-1.188,4.37-1.188
			c1.923,0,3.483,0.365,4.684,1.1c1.19,0.732,1.785,1.873,1.785,3.422v9.424c0,0.285,0.059,0.514,0.175,0.688
			c0.117,0.172,0.365,0.26,0.742,0.26c0.121,0,0.259-0.008,0.412-0.023c0.152-0.016,0.314-0.037,0.488-0.068v2.031
			c-0.428,0.121-0.754,0.199-0.978,0.229c-0.224,0.031-0.529,0.047-0.917,0.047c-0.946,0-1.634-0.336-2.062-1.008
			c-0.224-0.357-0.382-0.861-0.474-1.512c-0.561,0.732-1.364,1.369-2.413,1.908s-2.204,0.809-3.468,0.809
			c-1.517,0-2.756-0.459-3.719-1.381c-0.963-0.92-1.443-2.07-1.443-3.455c0-1.516,0.474-2.689,1.42-3.523
			c0.947-0.834,2.189-1.348,3.728-1.541L527.285,440.318z M521.496,447.746c0.58,0.457,1.268,0.686,2.062,0.686
			c0.967,0,1.903-0.225,2.811-0.672c1.527-0.742,2.291-1.957,2.291-3.645v-2.211c-0.336,0.215-0.768,0.393-1.296,0.537
			c-0.528,0.143-1.047,0.244-1.556,0.305l-1.661,0.215c-0.995,0.131-1.745,0.34-2.247,0.625c-0.85,0.477-1.275,1.238-1.275,2.285
			C520.625,446.664,520.916,447.289,521.496,447.746z"/>
	</g>
	<g>
		<path fill="#FFFFFF" d="M360.543,471.902c0.486,0.305,1.039,0.84,1.658,1.604v-8.264h2.643v22.514h-2.475v-2.275
			c-0.639,1.008-1.395,1.736-2.268,2.184c-0.873,0.449-1.871,0.672-2.998,0.672c-1.814,0-3.388-0.766-4.717-2.299
			c-1.328-1.531-1.992-3.57-1.992-6.117c0-2.383,0.605-4.447,1.817-6.193s2.944-2.619,5.196-2.619
			C358.656,471.107,359.7,471.373,360.543,471.902z M354.405,484.166c0.739,1.182,1.925,1.773,3.556,1.773
			c1.268,0,2.308-0.549,3.123-1.643c0.816-1.094,1.224-2.666,1.224-4.713c0-2.066-0.421-3.596-1.261-4.59
			c-0.842-0.992-1.88-1.488-3.115-1.488c-1.379,0-2.496,0.529-3.352,1.588s-1.284,2.617-1.284,4.674
			C353.296,481.52,353.666,482.986,354.405,484.166z"/>
		<path fill="#FFFFFF" d="M368.952,465.318h2.796v3.115h-2.796V465.318z M368.952,471.475h2.796v16.281h-2.796V471.475z"/>
		<path fill="#FFFFFF" d="M375.902,471.398h2.611v2.32c0.773-0.957,1.594-1.645,2.459-2.061c0.865-0.418,1.828-0.627,2.887-0.627
			c2.322,0,3.891,0.809,4.705,2.428c0.447,0.887,0.672,2.154,0.672,3.805v10.492h-2.795v-10.311c0-0.996-0.148-1.801-0.443-2.412
			c-0.488-1.018-1.375-1.527-2.658-1.527c-0.651,0-1.186,0.066-1.604,0.199c-0.754,0.223-1.415,0.672-1.985,1.344
			c-0.458,0.539-0.756,1.098-0.894,1.672c-0.137,0.576-0.206,1.398-0.206,2.467v8.568h-2.749V471.398z"/>
		<path fill="#FFFFFF" d="M404.74,471.398v10.859c0,0.834,0.129,1.518,0.387,2.047c0.476,0.977,1.363,1.467,2.662,1.467
			c1.864,0,3.134-0.855,3.809-2.566c0.367-0.916,0.55-2.174,0.55-3.773v-8.033h2.749v16.357h-2.596l0.03-2.412
			c-0.351,0.621-0.785,1.145-1.305,1.572c-1.028,0.855-2.278,1.283-3.747,1.283c-2.288,0-3.847-0.779-4.676-2.336
			c-0.449-0.836-0.674-1.951-0.674-3.346v-11.119H404.74z"/>
		<path fill="#FFFFFF" d="M419.938,466.83h2.78v4.568h2.612v2.244h-2.612v10.678c0,0.57,0.192,0.951,0.58,1.145
			c0.214,0.113,0.57,0.168,1.069,0.168c0.133,0,0.275-0.002,0.428-0.01c0.152-0.006,0.33-0.023,0.535-0.051v2.184
			c-0.316,0.092-0.645,0.158-0.986,0.199c-0.341,0.041-0.71,0.061-1.107,0.061c-1.283,0-2.153-0.328-2.611-0.984
			s-0.688-1.51-0.688-2.559v-10.83h-2.215v-2.244h2.215V466.83z"/>
		<path fill="#FFFFFF" d="M427.85,465.242h2.673v8.141c0.603-0.783,1.323-1.381,2.162-1.795c0.839-0.412,1.748-0.617,2.729-0.617
			c2.045,0,3.703,0.699,4.977,2.1c1.271,1.4,1.908,3.465,1.908,6.193c0,2.586-0.629,4.734-1.887,6.445
			c-1.256,1.711-3,2.566-5.229,2.566c-1.246,0-2.299-0.301-3.158-0.9c-0.511-0.357-1.058-0.928-1.641-1.711v2.092h-2.535V465.242z
			 M438.361,484.076c0.742-1.182,1.111-2.74,1.111-4.674c0-1.723-0.369-3.146-1.111-4.277c-0.74-1.131-1.83-1.695-3.271-1.695
			c-1.257,0-2.357,0.463-3.303,1.389c-0.945,0.928-1.418,2.455-1.418,4.584c0,1.537,0.195,2.783,0.583,3.74
			c0.726,1.803,2.079,2.705,4.062,2.705C436.505,485.848,437.621,485.256,438.361,484.076z"/>
		<path fill="#FFFFFF" d="M445.477,465.318h2.795v3.115h-2.795V465.318z M445.477,471.475h2.795v16.281h-2.795V471.475z"/>
		<path fill="#FFFFFF" d="M452.502,465.318h2.75v22.438h-2.75V465.318z"/>
		<path fill="#FFFFFF" d="M468.363,471.902c0.486,0.305,1.039,0.84,1.658,1.604v-8.264h2.643v22.514h-2.475v-2.275
			c-0.639,1.008-1.395,1.736-2.268,2.184c-0.872,0.449-1.871,0.672-2.997,0.672c-1.815,0-3.388-0.766-4.717-2.299
			c-1.329-1.531-1.993-3.57-1.993-6.117c0-2.383,0.605-4.447,1.818-6.193c1.212-1.746,2.943-2.619,5.195-2.619
			C466.477,471.107,467.521,471.373,468.363,471.902z M462.227,484.166c0.739,1.182,1.925,1.773,3.556,1.773
			c1.267,0,2.308-0.549,3.123-1.643s1.224-2.666,1.224-4.713c0-2.066-0.421-3.596-1.262-4.59c-0.841-0.992-1.879-1.488-3.115-1.488
			c-1.378,0-2.495,0.529-3.352,1.588c-0.855,1.059-1.283,2.617-1.283,4.674C461.117,481.52,461.486,482.986,462.227,484.166z"/>
		<path fill="#FFFFFF" d="M476.773,471.398h2.611v2.32c0.773-0.957,1.594-1.645,2.459-2.061c0.865-0.418,1.828-0.627,2.887-0.627
			c2.322,0,3.891,0.809,4.705,2.428c0.447,0.887,0.672,2.154,0.672,3.805v10.492h-2.795v-10.311c0-0.996-0.148-1.801-0.443-2.412
			c-0.488-1.018-1.375-1.527-2.658-1.527c-0.651,0-1.186,0.066-1.604,0.199c-0.754,0.223-1.415,0.672-1.985,1.344
			c-0.458,0.539-0.756,1.098-0.894,1.672c-0.137,0.576-0.206,1.398-0.206,2.467v8.568h-2.749V471.398z"/>
		<path fill="#FFFFFF" d="M494.17,465.318h2.796v3.115h-2.796V465.318z M494.17,471.475h2.796v16.281h-2.796V471.475z"/>
		<path fill="#FFFFFF" d="M501.12,471.398h2.612v2.32c0.773-0.957,1.594-1.645,2.459-2.061c0.865-0.418,1.828-0.627,2.887-0.627
			c2.322,0,3.89,0.809,4.705,2.428c0.447,0.887,0.672,2.154,0.672,3.805v10.492h-2.796v-10.311c0-0.996-0.147-1.801-0.442-2.412
			c-0.489-1.018-1.375-1.527-2.658-1.527c-0.652,0-1.186,0.066-1.604,0.199c-0.754,0.223-1.416,0.672-1.986,1.344
			c-0.457,0.539-0.756,1.098-0.893,1.672c-0.138,0.576-0.207,1.398-0.207,2.467v8.568h-2.749V471.398z"/>
		<path fill="#FFFFFF" d="M527.611,472.055c0.518,0.355,1.045,0.875,1.583,1.559v-2.062h2.536v14.877
			c0,2.076-0.305,3.717-0.914,4.918c-1.137,2.221-3.283,3.33-6.439,3.33c-1.756,0-3.232-0.395-4.43-1.184s-1.867-2.023-2.01-3.705
			h2.795c0.131,0.734,0.395,1.299,0.79,1.695c0.618,0.611,1.59,0.918,2.917,0.918c2.096,0,3.468-0.744,4.116-2.23
			c0.385-0.877,0.562-2.439,0.532-4.689c-0.549,0.836-1.207,1.457-1.979,1.863c-0.771,0.408-1.79,0.611-3.059,0.611
			c-1.764,0-3.309-0.629-4.633-1.887c-1.322-1.258-1.984-3.338-1.984-6.24c0-2.738,0.666-4.877,2-6.414s2.944-2.307,4.831-2.307
			C525.543,471.107,526.658,471.424,527.611,472.055z M527.948,475.002c-0.831-0.977-1.89-1.467-3.177-1.467
			c-1.924,0-3.241,0.908-3.95,2.721c-0.375,0.967-0.562,2.234-0.562,3.803c0,1.842,0.372,3.246,1.117,4.207
			c0.745,0.963,1.745,1.443,3.001,1.443c1.965,0,3.348-0.891,4.148-2.672c0.445-1.008,0.669-2.186,0.669-3.529
			C529.194,477.482,528.779,475.98,527.948,475.002z"/>
	</g>
</g>
</svg>
