<svg width="75" height="95" viewBox="0 0 30 38" fill="none" xmlns="http://www.w3.org/2000/svg"><mask id="a" mask-type="alpha" maskUnits="userSpaceOnUse" x="0" y="31" width="12" height="7"><path fill-rule="evenodd" clip-rule="evenodd" d="M.65 31.228h10.654v6.77H.65v-6.77Z" fill="#fff"/></mask><g mask="url(#a)" fill-rule="evenodd" clip-rule="evenodd" fill="#1D1C1A"><path d="M1.479 33.077c0 .192.038.35.115.476.077.125.18.229.31.31.13.081.28.148.451.2.172.052.35.1.536.146.25.062.496.13.738.205.242.075.457.178.646.31.19.132.342.303.46.515.116.211.175.483.175.814 0 .339-.064.63-.19.876a1.66 1.66 0 0 1-.526.605 2.35 2.35 0 0 1-.793.351c-.305.077-.64.115-1.002.115a5.04 5.04 0 0 1-1.014-.117 3.77 3.77 0 0 1-.432-.122 1.625 1.625 0 0 1-.303-.137v-.727c.115.059.245.113.39.162.145.048.294.09.448.124.154.034.31.06.468.08a3.421 3.421 0 0 0 1.087-.03c.203-.038.382-.103.537-.194.154-.091.276-.215.366-.373.09-.158.135-.356.135-.593a.903.903 0 0 0-.118-.483.979.979 0 0 0-.316-.315 1.866 1.866 0 0 0-.455-.202 9.834 9.834 0 0 0-.543-.147c-.25-.058-.495-.124-.734-.197a2.298 2.298 0 0 1-.641-.305 1.472 1.472 0 0 1-.453-.503c-.114-.204-.171-.466-.171-.785 0-.332.06-.617.18-.856.12-.24.281-.437.486-.593a2.08 2.08 0 0 1 .707-.347c.267-.074.551-.112.853-.112a4.392 4.392 0 0 1 1.778.361v.737a5.564 5.564 0 0 0-.826-.278 3.904 3.904 0 0 0-.913-.112c-.245 0-.457.026-.637.08-.18.054-.329.13-.448.23a.915.915 0 0 0-.265.36 1.234 1.234 0 0 0-.086.471ZM8.789 37.293c.234 0 .442-.028.624-.083.181-.056.34-.134.475-.235.135-.1.247-.221.337-.363.09-.142.159-.298.207-.47.032-.108.055-.228.068-.36.012-.131.019-.259.019-.382v-4.05h.785v4.03c0 .153-.008.312-.024.478-.016.166-.041.32-.077.464-.06.24-.152.463-.274.668a1.87 1.87 0 0 1-.478.532c-.196.15-.43.267-.706.351A3.298 3.298 0 0 1 8.78 38a3.32 3.32 0 0 1-.93-.117 2.228 2.228 0 0 1-.686-.325 1.814 1.814 0 0 1-.47-.492 2.452 2.452 0 0 1-.285-.622 3.026 3.026 0 0 1-.103-.522 4.82 4.82 0 0 1-.032-.542v-4.03h.786v4.05c0 .146.01.297.031.45.021.155.054.296.099.423.112.316.3.564.561.746.262.183.608.274 1.039.274Z"/></g><path fill-rule="evenodd" clip-rule="evenodd" d="M16.23 34.99a58.04 58.04 0 0 1 1.17 1.776h.03a29.529 29.529 0 0 1-.064-1.942V31.35h.79v6.528h-.785l-2.53-3.64a47.993 47.993 0 0 1-1.17-1.775h-.03c.042.595.063 1.29.063 2.083v3.332h-.785V31.35h.78l2.53 3.64ZM20.576 37.16h3.305v.718h-4.09V31.35h3.912v.717h-3.127v2.108h2.78v.717h-2.78v2.269ZM27.544 37.878h-.786v-5.81h-2.154v-.718h5.094v.717h-2.154v5.811Z" fill="#1D1C1A"/><path fill-rule="evenodd" clip-rule="evenodd" d="M3.224 15.364V3.632c0-.085.181-.326.323-.326h26.377V.041H3.546C2.222.04 0 .508 0 3.632v11.732c0 2.215 1.359 3.592 3.547 3.592h16.38V15.69H3.547c-.15 0-.323-.174-.323-.327Z" fill="#D3452E"/><path fill-rule="evenodd" clip-rule="evenodd" d="M26.74 11.436v11.732c0 .086-.181.326-.323.326H.04v3.265h26.377c1.324 0 3.547-.467 3.547-3.591V11.436c0-2.215-1.359-3.592-3.547-3.592h-16.38v3.265h16.38c.15 0 .322.175.322.327Z" fill="#D3452E"/></svg>