<?xml version="1.0" standalone="no"?>
<!DOCTYPE svg PUBLIC "-//W3C//DTD SVG 20010904//EN"
 "http://www.w3.org/TR/2001/REC-SVG-20010904/DTD/svg10.dtd">
<svg version="1.0" xmlns="http://www.w3.org/2000/svg"
 width="500.000000pt" height="500.000000pt" viewBox="0 0 500.000000 500.000000"
 preserveAspectRatio="xMidYMid meet">
<metadata>
Created by potrace 1.11, written by Peter Selinger 2001-2013
</metadata>
<g transform="translate(0.000000,500.000000) scale(0.100000,-0.100000)"
fill="#000000" stroke="none">
<path d="M2260 4920 c-487 -46 -917 -218 -1290 -516 -114 -92 -309 -287 -402
-404 -225 -282 -383 -602 -461 -935 -46 -195 -60 -330 -61 -575 0 -239 10
-349 50 -545 182 -874 915 -1632 1784 -1844 183 -44 312 -61 520 -68 703 -22
1288 200 1782 675 348 336 573 713 683 1146 100 395 100 846 -1 1256 -103 418
-350 828 -695 1154 -371 350 -804 564 -1294 637 -150 23 -470 32 -615 19z
m420 -1160 c263 -75 486 -298 555 -555 15 -56 34 -292 35 -432 l0 -63 60 0 60
0 0 -209 0 -208 -547 -7 c-302 -3 -711 -9 -910 -12 l-363 -7 0 205 0 206 31 6
c17 3 149 6 293 6 143 0 446 3 673 7 l411 6 -5 176 c-7 255 -33 340 -141 453
-65 69 -127 110 -208 139 -84 31 -254 31 -338 0 -198 -71 -336 -262 -336 -463
l0 -58 -150 0 -150 0 0 53 c1 362 280 694 650 773 93 19 283 11 380 -16z m715
-1762 c4 -62 5 -202 3 -311 l-3 -199 -32 -28 c-20 -18 -47 -31 -75 -34 -76
-10 -1602 -23 -1634 -14 -17 4 -41 20 -55 34 -24 26 -24 26 -32 331 -4 168 -6
307 -5 308 3 3 1022 17 1660 23 l166 2 7 -112z"/>
</g>
</svg>
