<?xml version="1.0" encoding="utf-8"?>
<!-- Generator: Adobe Illustrator 15.0.0, SVG Export Plug-In . SVG Version: 6.00 Build 0)  -->
<!DOCTYPE svg PUBLIC "-//W3C//DTD SVG 1.1//EN" "http://www.w3.org/Graphics/SVG/1.1/DTD/svg11.dtd">
<svg version="1.1" id="Layer_1" xmlns="http://www.w3.org/2000/svg" xmlns:xlink="http://www.w3.org/1999/xlink" x="0px" y="0px"
	 width="968px" height="804px" viewBox="0 0 968 804" enable-background="new 0 0 968 804" xml:space="preserve">
<g>
	<path fill-rule="evenodd" clip-rule="evenodd" fill="#FFFFFF" d="M788.52,47.04c2.038-2.042,2.176-5.985,3.841-8.4
		c0.235-0.981-0.026-0.97,0-2.16c1.146-0.293,1.387-1.493,2.88-1.44c2.842,2.716-1.037,7.074-1.2,10.56
		c0.435,0.525,1.879,0.041,2.4,0.48c0.708,0.571,0.938,1.622,1.199,2.64c1.409-0.208,2.157,0.243,2.88,0.72
		c0.566,0.474,0.333,1.747,0.721,2.4c3.628-0.198,4.359,4.271,2.64,6.72c0.433,1.087,1.365,1.675,2.16,2.4
		c5.634-0.534,12.727-1.189,18.24-1.44c1.17-0.053,2.816,0.361,3.84,0c1.435-0.507,2.223-3.204,2.88-4.56
		c0.857-1.772,1.271-3.818,2.64-4.8c1.085,2.499,0.91,6.848-0.239,9.12c3.446-0.714,6.437,0.291,9.119,1.2
		c1.507,0.51,3.688,0.817,3.12,2.88c-4.688-0.51-9.957-0.668-14.64,0c-3.441,4.639-6.365,9.795-9.36,14.88
		c1.595,4.449,4.911,5.449,9.12,7.2c7.12,2.962,13.131,7.573,19.2,12c1.694,1.236,3.626,2.192,5.04,3.36
		c1.183,0.976,1.963,2.363,3.12,3.36c1.119,0.964,2.46,1.708,3.6,2.64c2.279,1.863,4.2,4.108,6.48,6
		c0.678,0.562,1.708,0.831,2.399,1.44c2.307,2.03,4.099,5.269,6.48,7.92c2.38,2.648,4.274,5.584,6.24,8.16
		c0.746,0.979,1.795,1.704,2.399,2.64c0.812,1.258,1.264,3.062,1.92,4.56c0.631,1.437,1.462,2.734,2.16,4.08
		c1.463,2.82,2.367,5.903,3.84,8.64c0.368,0.684,1.054,1.206,1.44,1.92c0.795,1.467,0.745,3.218,1.2,4.8
		c0.824,2.869,2.434,5.557,3.6,8.4c0.6,1.463,1.031,2.988,1.68,4.32c1.23,2.526,2.54,4.854,3.601,8.16
		c1.406,4.381,3.206,8.669,4.8,12.96c5.525-4.167,9.646-9.886,14.88-15.12c2.373-2.373,3.548-3.168,5.28-6.72
		c0.535-1.097,1.206-3.538,2.88-3.12c1.43,0.357,1.29,3.163,0.72,4.8c-0.812,2.333-2.78,5.078-4.56,6.96
		c-5.129,5.425-12.256,12.08-16.8,17.52c2.064,0.895,4.703,1.217,5.279,3.6c0.222,1.101-0.601,1.159-0.479,2.16
		c0.842,1.132,2.783,2.43,1.439,4.32c0.415,0.866,1.488,1.072,1.92,1.92c0.055,1.174-0.731,1.508-0.72,2.64
		c3.77,1.119,8.686,1.031,13.44,1.44c2.22,0.191,4.635,0.479,6.72,0.72c1.955,0.225,4.536-0.031,5.28,1.92
		c-1.463,1.178-3.984,1.296-5.28,2.64c-7.237-1.163-15.197-1.603-23.28-1.92c-0.414,4.26,0.417,8.139,0.96,12.24
		c0.306,2.3,0.134,4.698,0.48,6.96c0.17,1.11,0.853,2.188,0.96,3.36c0.113,1.247-0.397,2.521-0.48,3.84
		c-0.28,4.486,0.422,9.6-0.479,14.4c0.162,0.638,0.378,1.222,0.72,1.68c-0.04,1.807-0.563,3.549-0.72,5.28
		c-0.253,2.804,0.458,6.063,0.479,9.12c0.014,1.84-0.426,3.468-0.239,5.04c0.141,1.184,0.558,2.767,0.239,4.56
		c-0.229,1.288-0.867,2.763-1.199,4.08c-0.373,1.476-0.656,2.852-0.961,4.32c-0.756,3.653-2.082,6.761-2.159,10.32
		c-2.341,4.667-4.159,10.021-6.48,15.6c-0.788,1.896-1.38,2.704-1.439,5.04c-3.478,5.402-5.671,12.09-8.641,18c0,0.72,0,1.44,0,2.16
		c-0.605,0.638-0.588,1.383-0.96,2.16c-0.289,0.604-0.891,1.063-1.2,1.68c-1.028,2.049-1.607,4.727-2.399,7.2
		c-0.773,2.412-2.244,4.636-2.88,6.72c-0.184,0.601-0.101,1.374-0.24,1.92c-0.626,2.458-2.698,3.985-3.12,6.48
		c1.955,1.021,4.667,0.946,7.2,1.2c3.236,0.324,6.426,0.953,9.6,0.96c2.383,0.005,4.748-1.141,6.72-0.24
		c-0.039,1.812-2.24,1.286-3.359,1.68c-1.537,0.541-2.606,1.675-3.84,2.16c-4.962,0.082-8.718-1.042-13.681-0.96
		c-0.393,1.279-1.193,2.965-2.64,3.84c0.118,0.842,0.358,1.562,0.24,2.64c-0.657,0.863-1.602,1.439-2.4,2.16
		c0.24,0.623,0.422,1.607-0.24,1.92c-0.216,1.144-1.443,1.276-2.399,1.68c1.2,5.207-4.173,5.685-8.4,6.24
		c-2.063,1.696-3.216,4.304-5.279,6c-0.982,3.178-4.155,5.302-6.48,8.16c-1.59,1.955-3.009,4.073-4.8,6
		c-0.613,0.659-1.414,1.039-1.92,1.68c-0.581,0.735-0.673,1.695-1.2,2.4c-1.429,1.91-3.763,3.522-6,5.76
		c-0.643,0.643-1.313,1.607-2.64,3.12c-0.758,0.863-2.898,2.662-2.881,2.88c0.067,0.801,2.829,1.688,3.36,2.16
		c1.109,0.987,1.876,2.922,3.12,4.32c1.011,1.135,2.939,1.669,2.4,3.6c-4.121-1.879-6.987-5.013-11.28-6.72
		c-4.609,5.23-9.155,10.524-13.92,15.6c-1.354,3.221-4.891,5.131-7.681,7.92c-1.139,1.14-2.234,2.134-3.359,3.12
		c-3.008,2.635-5.812,5.556-9.12,8.16c-2.081,1.639-4.433,3.012-6,4.8c-2.02,2.303-2.639,5.257-5.521,6.96
		c-1.579,3.159-4.479,5.538-6.479,8.4c-1.587,2.27-2.728,5.202-5.28,6.72c-3.478,4.923-7.732,9.067-11.279,13.92
		c3.632,1.729,8.795,1.924,11.039,5.04c-1.112,0.914-2.07,0.082-3.119,0c-0.479-0.037-0.982,0.285-1.44,0.24
		c-0.457-0.046-0.822-0.466-1.2-0.48c-0.601-0.022-1.247,0.348-1.92,0.24c-2.076-0.332-4.191-2.127-6-1.92
		c-1.694,0.194-4.192,3.312-5.28,4.56c-1.745,2.004-2.524,4.042-4.319,5.521c0.722,1.519,2.819,1.66,4.319,2.399
		c0.5,1.98,1.694,3.266,3.36,4.08c0.246,0.874,0.756,1.484,0.96,2.4c-4.271-1.249-7.522-3.518-11.28-5.28
		c-2.582,1.978-4.146,4.974-6.479,7.2c-1.243,3.317-4.383,4.737-6.24,7.44c0.599,1.413,2.206,1.847,3.36,2.64
		c3.254,2.237,6.801,5.056,11.04,6.72c0.147,3.293,3.728,3.152,4.08,6.24c-6.627-2.254-11.211-6.55-17.28-9.36
		c-0.157,2.115,3.488,4.828,3.36,7.681c-0.053,1.151-0.742,2.536-2.16,3.12c-0.875-3.365-2.821-5.659-4.561-8.16
		c-0.399,1.359-1.013,2.507-3.12,2.16c-0.667,0.771-0.656,2.223-1.439,2.88c-0.96,0.235-1.44,0.235-2.4,0
		c-0.722,0.747,0.137,2.38-0.72,3.359c-0.858,0.473-1.281-0.111-2.4,0c1.672,4.202,5.589,9.247,8.4,13.681
		c1.731,2.73,3.493,6.073,0,7.68c-3.687-7.833-8.833-14.207-13.2-21.36c-1.598-0.353-2.212,2.235-3.84,2.641
		c-3.264,3.839-8.139,6.717-12.24,10.08c-1.437,1.178-2.74,2.347-4.08,3.6c-1.347,1.26-2.847,2.2-4.319,3.36
		c-2.185,1.719-4.356,3.677-6.48,5.52c-2.086,1.811-3.851,4.115-6,5.76c-4.503,3.446-9.238,6.586-12.72,11.04
		c-4.12,2.979-8.459,5.688-12.48,8.88c-1.28,1.017-2.322,2.322-3.6,3.36c-1.693,1.375-3.775,2.267-5.521,3.6
		c-5.035,3.85-10.093,8.01-13.92,13.44c-3.933,3.474-8.184,6.564-12,10.32c-1.192,1.174-2.276,2.765-3.6,3.84
		c-1.133,0.92-2.722,1.229-3.36,2.64c1.047,1.833,3.8,2.451,6.24,3.601c2.074,0.977,5.355,2.198,6,3.84
		c0.558,1.42-0.516,2.673,0.48,4.319c-3.546-3.095-8.405-4.875-12.96-6.96c-1.263,0.178-0.997,1.884-2.16,2.16
		c-1.119,0.562-3.053,0.308-3.12,1.92c0.348,1.333,1.912,1.448,2.399,2.641c0,1.279,0,2.56,0,3.84
		c-0.117,0.861-0.949-0.245-1.199-0.48c-1.089-1.021-2.722-2.676-4.32-3.359c-0.93,0.11-0.903,1.177-1.68,1.439
		c-0.895,0.226-2.121,0.119-2.641,0.721c2.407,8.473,5.976,15.784,9.36,23.279c-0.267,2.294-0.792,4.328-1.2,6.48
		c-4.876-9.924-9.41-20.189-12.96-31.44c-3.794,2.126-7.52,4.32-10.56,7.2c1.103,4.626,2.777,9.815,4.319,14.4
		c0.512,1.521,1.387,3.238,1.44,4.56c0.086,2.107-1.518,3.728-1.68,6c-0.97-0.46-0.934-1.8-1.2-2.64
		c-1.895-5.96-4.476-12.798-6.24-19.44c-0.813-0.21-1.314,0.63-1.92,0.96c-3.227,1.76-6.703,4.029-9.6,6.48
		c-1.113,0.94-1.936,2.15-3.12,3.12c-1.742,1.424-3.8,2.514-5.521,3.84c-3.479,2.68-6.535,5.541-9.6,8.88
		c-2.883,3.141-6.038,6.16-9.12,9.36c-1.519,1.575-2.656,3.286-4.08,5.039c-4.038,4.973-9.606,8.693-14.16,13.44
		c-1.156,1.206-2.199,2.197-3.6,3.36c-3.515,2.918-7.865,5.898-11.28,9.359c-1.956,1.982-3.786,3.938-6,5.761
		c-4.277,3.521-9.097,7.658-12.72,12.239c-6.542,4.578-12.459,9.781-18.24,15.12c1.764,2.389,4.636,3.558,7.2,5.04
		c2.441,1.412,4.985,3.37,8.16,3.84c-0.168,1.969,1.727,3.019,1.199,4.561c-6.992-1.647-11.601-5.68-17.52-8.4
		c-0.63,0.73-0.622,2.098-1.44,2.641c-1.044,0.33-1.338-0.073-2.64,0c-0.862,1.218-1.273,2.887-3.84,2.399
		c-0.691,1.31-1.652,2.349-2.88,3.12c-1.194,0.203-1.661-1.225-2.4-0.72c0.315,1.924-0.772,3.82-0.72,6.72
		c-1.346,0.494-1.978,1.702-3.36,2.16c-1.274-1.132-2.125-2.544-2.16-4.32c-5.434-0.171-13.544-0.102-16.32-4.32
		c1.092-0.269,0.673-1.059,1.44-1.199c0.759-0.14,1.287,0.765,1.92,0.72c0.806-0.058,1.007-0.794,1.92-0.72
		c1.686,1.034,4.095,1.344,6.72,1.439c0.366-0.663-0.417-1.883-0.72-2.64c1.122-1.313,0.409-3.067,0.72-5.28
		c0.885-1.035,1.698-2.142,3.12-2.64c-1.621-5.426-6.415-8.548-10.32-12c-3.947-3.49-7.516-7.51-11.28-11.04
		c-4.796-4.499-9.435-9.052-14.64-13.2c-2.921-2.328-5.716-5.265-8.64-7.92c-3.18,2.81-5.198,7.032-7.92,10.8
		c-0.838,1.16-1.777,2.868-2.64,3.601c-1.741,1.476-4.302,1.402-6.72,2.399c-0.957-0.522,1.643-1.851,2.16-2.399
		c0.848-0.9,1.73-2.404,2.64-3.601c2.415-3.177,5.227-7.13,7.44-10.56c-1.503-0.737-3.253-1.228-2.88-3.84
		c-1.035-0.405-2.567-0.313-3.36-0.96c-0.563-0.397-0.52-1.4-0.48-2.4c-1.351-0.078-2.285,0.576-3.12-0.24
		c-0.667-0.686-0.502-2.109-0.24-3.12c-2.611-0.329-6.922,0.403-7.2-2.88c1.422-1.434,3.46-1.28,5.76-1.439
		c0.035-1.45-1.768-2.804-2.88-4.08c-1.146-1.316-2.322-2.601-2.88-4.32c-0.73-0.79-1.335-1.705-2.16-2.4
		c-3.508,2.721-6.491,6.251-9.84,9.601c-2.512,2.512-4.787,4.367-10.08,4.319c1.268-1.264,2.752-2.188,4.08-3.359
		c3.769-3.328,7.58-7.079,11.04-11.04c-0.864-1.136-2.471-1.528-1.92-4.08c-0.724-0.876-2.383-0.816-3.12-1.68
		c-0.391-0.773-0.115-1.301,0-2.16c-0.597-0.604-2.554,0.153-2.88-0.72c-0.534-1.037-0.034-2.195,0.24-3.12
		c-1.47-0.45-3.24-0.601-4.8-0.96c-1-0.28-0.86-1.7-1.68-2.16c0.733-1.215,2.742-1.792,4.56-1.2c0.179-0.799-0.708-1.403-1.2-1.92
		c-3.567-3.749-8.075-7.862-12.48-11.04c-0.943-1.997-2.998-3.181-4.8-4.8c-3.238-2.909-6.688-6.121-10.32-8.88
		c-0.371-0.51-0.69-1.07-0.96-1.681c-3.744-2.494-6.718-5.987-10.56-8.64c-1.201-0.829-2.75-1.402-3.84-2.4
		c-0.635-0.581-1.021-1.562-1.68-2.16c-1.033-0.935-2.438-1.706-3.6-2.64c-2.215-1.779-4.324-3.738-6.72-5.52
		c-1.138-0.847-2.549-1.45-3.6-2.4c-0.641-0.579-1.045-1.552-1.68-2.16c-2.158-2.067-4.923-3.322-6.96-5.52
		c-3.651,3.604-7.178,7.414-10.56,11.279c-3.396,3.883-6.667,7.93-9.6,12.24c-3.74,0.101-4.422,3.259-7.92,3.601
		c6.418-9.503,14.437-17.403,21.36-26.4c-0.703-0.944-2.698-1.718-1.68-3.6c-2.185-0.258-4.185-1.288-3.36-3.841
		c-1.644,0.081-3.603-0.017-3.84-1.68c-0.216-1.515,1.387-1.816,1.68-3.36c-1.215-0.33-3.223,0.614-5.28,0.24
		c-1.539-1.102-1.546-3.733-2.16-5.76c-1.621-0.341-1.81,0.75-2.64,1.2c-3.306-0.187-3.876,2.363-6.96,2.399
		c-1.127-0.447,1.166-1.307,1.2-2.159c-1.498-0.663-2.558-1.763-2.88-3.601c3.49,0.005,7.882,0.026,9.36-2.64
		c-0.633-1.535-2.006-2.699-3.12-3.84c-1.059-1.085-2.257-2.318-3.36-3.36c-2.293-2.168-5.169-3.874-7.2-6.24
		c-0.416-0.484-0.574-1.205-0.96-1.68c-0.874-1.072-2.282-1.825-3.36-2.88c-1.064-1.042-2.114-2.114-3.12-3.12
		c-2.067-2.067-4.418-3.846-6.24-6c-0.289-0.342-0.206-0.812-0.48-1.2c-0.915-1.292-2.591-2.551-3.84-3.84
		c-3.55-3.666-7.674-7.243-11.28-11.04c-2.918-1.89-5.494-4.288-8.16-6.48c-2.656-2.184-5.684-4.107-7.68-6.96
		c-3.669-2.708-6.913-6.15-10.8-8.88c-1.778-1.248-3.649-2.22-4.8-4.08c-3.755-2.462-7.259-5.24-11.04-7.92
		c-1.169-0.828-2.59-1.742-3.6-2.64c-1.589-1.412-2.53-3.553-4.8-4.08c-2.083,2.262-3.173,5.586-4.8,8.64
		c-0.749,1.406-1.656,2.89-2.4,4.32c-0.761,1.465-1.336,3.159-2.16,4.32c-1.541,2.171-4.225,3.38-6.48,4.8
		c2.984-8.296,7.75-14.81,11.04-22.8c-0.929-0.252-1.799,1.083-3.12,0.72c-1.273-0.351-1.741-1.788-1.2-3.36
		c-0.89-0.47-2.666-0.054-3.12-0.96c-0.487-0.754-0.653-1.957,0-2.64c-0.868-0.608-1.949,0.853-3.12,0
		c-0.598-0.682-1.189-1.371-0.96-2.88c-4.329,0.521-3.587-3.751-1.2-5.76c-1.342-2.099-3.299-3.582-5.04-5.28
		c-4.395,0.583-8.571,1.26-12.72,2.4c-2.107,0.579-3.15,1.056-5.76,0.96c-1.779-0.066-3.851,0.588-5.52-0.24
		c0.087-1.632,2.116-2.082,3.6-2.641c4.463-1.679,10.883-2.938,16.08-4.079c0.134-2.114-1.691-3.221-2.88-4.561
		c-1.109-1.25-2.094-2.788-3.12-4.08c-2.754-3.47-5.565-6.384-8.16-10.08c-1.431-2.038-3.12-4.515-4.8-6.72
		c-2.25-2.953-4.75-5.516-6.72-8.64c-3.871-6.14-9.29-11.119-13.44-17.04c-4.673-5.552-9.649-11.086-13.2-17.761
		c-1.483-2.788-3.417-5.399-5.04-8.159c-1.604-2.729-3.172-5.438-5.04-7.921c-1.133-3.633-3.668-7.208-5.76-10.319
		c-1.813-2.696-4.303-4.95-5.76-7.68c-0.726-1.36-0.563-2.973-2.16-3.84c-3.357,0.255-5.503,2.961-8.4,2.88
		c-0.654-1.403,0.46-1.547,1.44-1.92c0.391-1.449,1.437-2.243,2.16-3.36c1.258,0.058,1.816-0.584,2.88-0.72
		c-1.735-4.896-5.472-8.062-7.2-13.2c-0.765-2.274-2.887-4.069-3.6-6.48c-3.698-0.753-9.232-1.785-7.44-6.48
		c-0.277-1.164-1.844-1.036-2.16-2.16c0.786-3.058-3.437-4.276-1.2-7.2c-0.842-1.239-2.359-1.802-1.92-4.32
		c-5.537-0.093-13.114,2.438-15.84-1.68c-1.165-0.275-2.753-0.126-2.88-1.44c0.869-1.759,2.904-0.18,4.56,0
		c1.132,0.123,2.535,0.074,3.84,0c4.446-0.253,9.807-0.858,13.2-1.68c-0.394-2.633-2.076-4.203-2.4-6.72
		c-0.099-0.768,0.144-1.547,0-2.4c-0.359-2.126-1.243-4.401-1.68-6.72c-1.303-6.904-3.352-12.769-6.24-18.48
		c-1.578-3.12-2.61-7.501-4.08-11.04c-0.914-2.201-1.874-4.488-2.88-6.72c-2.155-4.778-2.222-10.268-3.84-15.36
		c-0.409-1.287-1.202-2.617-1.44-4.56c-0.524-4.276-1.044-8.803-2.16-12.96c-0.36-1.343-1.256-2.771-1.44-4.32
		c-0.154-1.299,0.65-2.445-0.48-3.6c-1.498-0.048-2.78,0.898-4.08,1.68c-2.362,1.419-4.604,2.187-5.52,5.04
		c-2.201-0.494-3.449-3.365-1.92-5.52c3.721-0.839,6.012-3.108,8.88-4.8c-1.006-1.15-3.281-3.515-1.44-5.28
		c-2.335-1.42-0.145-4.511-2.16-6c0.345-1.095,1.481-1.399,2.4-1.92c-1.764-1.213-2.685-3.213-4.08-4.8
		c-1.249-1.42-3.391-2.728-3.36-5.28c1.135,0.095,2.003-0.077,2.88-0.24c2.002,3.038,4.047,6.033,7.44,7.68
		c0.687-1.267,0.632-2.863,0.72-4.32c0.157-2.59-0.49-6.048,0.24-8.88c0.189-0.732,0.739-1.414,0.96-2.16
		c0.668-2.253,0.539-5.059,0.96-7.68c0.167-1.04,0.595-2.115,0.72-3.12c0.195-1.565-0.062-3.091,0.24-4.56
		c0.303-1.474,1.044-2.767,1.2-4.32c0.163-1.626-0.129-3.152,0.24-4.8c-3.501,0.03-8.802,0.309-12.24,1.2
		c-0.644-0.557-1.493-0.907-1.92-1.68c-1.429,0.427-1.653-0.213-2.4-0.96c0.926-1.833,3.87-1.911,6.24-2.16
		c3.519-0.369,7.088-0.404,10.8-0.96c0.595-7.066,4.589-12.647,5.76-19.92c0.567-0.553,0.768-1.472,1.2-2.16
		c-1.777-2.752-4.355-5.833-6.72-8.64c-1.645-1.953-4.151-4.727-4.56-8.16c-0.239-2.009,0.051-3.828,1.44-3.84
		c1.495-0.013,2.566,4.711,2.88,5.28c2.178,3.941,6.582,7.943,9.36,11.521c2.328-4.312,4.698-8.582,6.72-13.2
		c0.622-0.338,1.108-0.812,1.68-1.2c1.03-1.85,2.055-3.693,3.12-5.52c1.087-1.864,2.531-3.317,3.6-5.04
		c0.742-1.194,0.968-2.537,1.92-3.6c0.643-0.718,1.729-1.218,2.4-1.92c1.899-1.985,3.164-4.521,4.8-6.72
		c-0.324-1.557-1.245-3.109-0.72-4.8c1.928-0.329,1.822,1.378,2.64,2.16c1.361-1.839,2.506-3.894,3.12-6.48
		c-4.306-1.527-8.948-1.967-13.68-2.88c-4.404-0.85-8.923-2.382-13.44-2.88c-1.623-0.179-3.589,0.384-5.04-0.72
		c0.134-2.331,2.979-2.06,5.28-2.4c0.745-0.11,1.542-0.485,1.92-0.48c1.807,0.022,4.413,0.945,6.96,1.44
		c4.936,0.959,8.367,1.504,13.68,2.64c2.224,0.476,5.289,1.806,6.72,1.44c1.014-0.259,1.762-2.046,2.88-3.6
		c1.038-1.442,2.34-2.723,2.88-3.36c3.591-4.24,5.465-7.514,9.36-10.8c-0.213-2.284-2.423-5.859,0-7.2
		c1.945,0.375,2.701,1.938,2.88,4.08c3.419-2.124,6.134-5.072,9.12-7.68c4.357-3.806,9.38-7.303,14.16-10.8
		c0.805-0.589,1.604-1.183,2.4-1.68c2.55-1.592,5.62-2.679,8.64-3.84c1.805-0.694,3.869-1.272,5.52-2.64
		c-1.812-4.757-5.452-10.113-8.16-14.88c-1.952-3.435-4.808-7.965-2.16-12.72c1.085,0.974,0.991,2.428,1.44,3.6
		c2.63,6.861,7.19,12.385,10.32,18.72c1.734-0.224,2.875-0.262,4.32,0.24c1.651-0.509,1.986-2.334,4.56-1.92
		c0.603-0.678,1.243-1.318,1.92-1.92c1.108-0.087,1.381-0.295,2.4,0c0.645-0.879-0.296-1.832-0.24-2.88
		c0.568-0.711,1.972-0.588,2.88-0.96c1.497,0.744,0.983,3.497,2.64,4.08c-0.287,1.153-0.695,2.185-0.72,3.6
		c2.994,0.401,5.723-1.198,8.64-1.68c9.458-1.562,19.818-2.97,30.24-4.32c6.101-0.79,13.258-1.774,21.36-1.2
		c3.265,0.231,8.54,0.291,12,0.72c4.452,0.552,8.982,1.639,13.2,2.64c12.484,2.964,23.147,8.184,32.64,14.4
		c13.067,8.557,26.89,14.753,40.08,22.56c1.334-0.883,2.285-2.524,3.12-3.84c2.495-3.934,5.203-8.229,7.44-12.72
		c1.851-0.389,2.746-1.734,3.6-3.12c1.334,0.24,1.804-0.828,3.6-0.72c-3.406,6.433-7.387,12.292-11.04,18.479
		c0.155,1.206,0.975,1.745,1.2,2.88c3.844-0.653,2.877,3.417,6.24,2.64c0.813,0.867,1.46,1.899,1.92,3.12
		c2.318-0.923,3.151-2.724,6.24-1.92c0.934,1.153,2.039,3.121,1.44,5.04c-1.578,0.401-2.116-1.217-3.36-1.2
		c-1.612,0.023-2.262,1.424-3.12,2.88c1.614,1.747,3.608,3.132,5.52,4.56c5.528,4.127,10.79,8.933,16.56,13.2
		c7.459,5.516,14.675,11.587,21.6,18.24c1.683,1.616,3.105,3.625,4.8,5.28c1.686,1.645,3.555,2.957,5.28,4.56
		c8.593,7.983,18.602,14.179,30.96,18.72c1.221,0.449,2.571,0.752,3.84,1.2c2.816,0.995,7.22,2.655,11.28,2.64
		c5.514-0.021,10.365-2.224,14.4-4.32c-0.599-1.521-1.994-2.738-3.12-3.84c-2.29-2.241-4.867-4.274-7.44-6.48
		c-1.191-1.021-2.165-2.522-3.84-2.88c0.121-2.444-1.563-3.01-0.72-5.04c3.576,0.845,5.818,4.042,8.4,6.24
		c2.66,2.264,5.328,4.391,7.92,6.72c1.056-0.225,1.03-1.531,2.16-1.68c3.138,1.038,3.286-2.684,6.48-1.44
		c0.651-0.629,0.691-1.869,1.44-2.4c0.743-0.458,2.018-0.382,2.88-0.72c1.027-4.446,1.992-10.931,3.12-16.32
		c0.784-3.745,1.714-7.936,6.24-6.24c0.002,1.707-1.517,2.739-2.16,4.32c-1.079,2.652-1.376,6.361-1.92,9.6
		c-0.554,3.303-1.483,6.676-0.96,9.84c2.357-0.697,4.236-2.256,6.24-3.6c5.717-3.833,12.678-6.397,18.72-10.08
		c4.118-2.51,8.584-4.388,12.72-6.72c4.028-2.271,7.62-5.252,11.521-7.68c3.996-2.488,7.945-4.999,11.76-7.68
		c3.799-2.67,7.729-5.052,11.52-7.68c1.9-1.317,3.433-3.099,5.28-4.56c3.528-2.789,7.148-5.545,10.8-8.4
		c1.793-1.401,3.48-2.981,5.28-4.32c3.225-2.397,7.134-4.087,10.8-6c3.607-1.883,6.887-4.322,10.32-6.48
		c6.843-4.302,13.316-8.879,20.16-13.2c-0.732-1.449-2.547-1.58-3.84-2.16c-3.889-1.746-8.166-3.992-12.48-5.52
		c-1.431-1.929-3.104-3.616-4.08-6c2.127,0.5,4.12,1.688,6.24,2.64c5.966,2.678,12.812,5.572,18.96,8.4
		c1.117-0.323,2.041-0.839,2.64-1.68c-0.063-2.307-1.028-4.647,0.48-6c0.885-0.423,2.184-0.208,3.12,0
		c0.719-1.361,1.219-2.941,3.6-2.64c-0.05-1.41-0.129-2.849,0.72-3.36c2.455-1.062,3.263,1.296,4.08,2.64
		c0.761-0.475-0.063-1.825,0.48-2.88c1.196-1.684,2.299-3.461,5.28-3.36c1.4,2.919-2.646,3.994-0.96,6.48
		c4.955-2.411,10.117-5.089,15.6-7.44c5.255-2.254,10.401-4.887,16.08-6.72c2.767-0.893,5.741-1.917,8.64-2.88
		c2.897-0.962,5.703-2.262,8.641-2.88c3.215-0.677,6.633-0.9,10.08-1.44c2.992-0.468,6.075-1.465,9.119-1.68
		c2.922-0.206,5.623-0.092,8.881-0.24c4.192-0.19,8.703-0.924,13.199-0.48c4.023,0.397,8.657,1.641,12.96,2.88
		c2.117,0.609,4.137,1.08,6.24,1.68c1.973,0.563,3.633,1.607,5.521,2.4c1.916,0.805,4.146,1.239,6.239,1.92
		c2.13,0.692,4.228,1.529,6.24,1.92c1.951,0.378,3.802,0.486,5.28,1.2c0.626,0.302,1.073,0.898,1.68,1.2
		c4.055,2.021,8.827,3.913,12.96,6.24c2.56-0.159,3.236,1.564,5.28,1.92C783.573,44.787,786.396,45.563,788.52,47.04z M771.72,43.68
		c-0.72,0-1.439,0-2.16,0c-5.214-3.026-10.985-5.495-17.04-7.68c-2.673,0.407-4.344-0.336-6.72-1.2
		c-4.591-1.67-8.806-4.205-13.439-5.04c-0.943-0.17-1.938-0.066-2.88-0.24c-3.861-0.711-7.72-2.333-12-2.64
		c-3.919-0.281-7.519,0.586-10.561,0.72c-6.434,0.283-11.521,0.64-16.56,1.44c-5.009,0.795-10.043,1.503-14.4,2.64
		c-2.22,0.579-4.063,1.58-6.24,2.4c-5.411,2.039-11.203,2.809-16.08,5.52c-1.512,0.84-2.606,1.74-4.08,2.4
		c-6.447,2.89-13.621,5.317-18.72,9.12c1.217,2.109,3.543,3.135,5.521,4.56c3.981,2.869,7.663,5.823,11.76,8.64
		c1.993,1.371,4.208,3.236,6.24,4.08c1.822,0.757,4.146,0.374,5.52,2.16c-0.576,1.831-2.924,1.892-4.8,1.68
		c-3.534-0.4-6.235-2.717-8.88-4.56c-5.274-3.676-11.275-8.554-16.08-11.52c-1.281,0.559-1.86,1.82-4.08,1.44
		c-0.926,1.075-1.666,2.333-3.84,2.16c-0.656,1.664-2.341,2.299-3.601,3.36c0.602,3.694,1.331,7.718,1.92,11.76
		c0.757,5.182,1.957,11.092,0.721,15.12c-0.564-0.715-1.478-1.083-2.16-1.68c0.56-2.559-1.32-2.679-1.92-4.08
		c0.479-4.538-0.749-8.524-1.44-12.72c-0.58-3.525-0.623-7.097-1.92-10.08c-1.832-0.578-3.463,0.925-4.8,1.68
		c-1.536,0.867-3.079,1.592-4.56,2.4c-2.984,1.627-5.672,3.868-8.4,5.76c-5.641,3.91-11.458,7.625-17.28,11.04
		c-3.066,1.799-6.261,3.038-9.12,4.8c-2.808,1.73-5.257,4.091-7.92,6.24c-5.19,4.188-10.423,8.33-15.84,12.48
		c-2.669,2.045-5.586,3.675-8.399,5.52c-2.848,1.867-5.413,3.993-8.16,6c-2.771,2.024-5.909,3.469-8.88,5.28
		c-2.88,1.755-5.612,3.908-8.4,5.76c-2.913,1.935-6.176,3.163-9.36,4.8c-3.028,1.557-5.911,3.526-8.88,5.28
		c-4.507,2.662-9.754,4.693-13.92,7.2c-1.384,0.833-3.255,1.641-3.84,3.36c7.728,4.592,10.07,14.57,14.64,22.32
		c6.511-3.169,12.694-6.786,18.96-10.32c9.364-5.282,17.102-12.281,27.12-16.8c4.404-1.986,8.211-4.074,12-6.24
		c3.854-2.203,7.686-4.8,11.28-6.96c1.518-0.912,3.393-1.429,4.56-2.88c-5.724-2.761-14.855-3.456-18.96-7.44
		c-0.749-0.727-1.652-1.684-1.68-2.64c5.224,2.239,12.714,4.264,18.96,6.24c3.181,1.006,6.605,2.938,8.4,0.72
		c-0.072-1.423-1.174-2.911-0.721-4.08c0.563-1.289,2.01-1.227,3.601-0.96c0.338-1.422,1.166-2.354,3.12-2.16
		c-0.506-1.751-0.208-2.547,0.96-2.88c1.77-0.504,2.668,1.574,3.84,1.92c-0.852-3.208,2.182-5.332,4.8-5.04
		c0.928,2.214-1.633,2.76-0.72,4.8c2.759,0.183,4.83-2.183,7.2-3.36c2.6-1.292,5.552-1.765,7.92-3.36
		c-1.626-3.334-3.807-6.114-5.521-9.36c1.661-0.141,2.236,0.804,4.08,0.48c0.698,1.622,1.894,2.746,3.84,3.12
		c0.728,1.352,1.185,2.976,2.641,3.6c5.934-3.638,13.017-5.68,19.439-8.4c6.645-2.813,14.118-4.031,21.601-6.24
		c5.094-1.504,10.215-2.177,15.6-3.12c5.983-1.048,9.842-2.149,14.16-4.32c8.395-4.221,17.294-7.55,27.359-10.08
		c5.061-1.272,10.268-2.477,15.601-3.12c6.745-0.813,12.702-0.925,18.96-1.2c9.477-0.417,18.32,1.099,27.12,1.439
		c0.368-5.439,3.178-7.434,6.24-10.08c2.873-2.483,5.623-4.696,8.399-6.96c1.397-1.14,3.146-2.372,3.84-3.84
		C780.826,48.654,776.321,46.119,771.72,43.68z M279,63.36c-2.529-1.753-4.948-3.301-7.68-4.8c-5.059-2.776-10.876-5.799-17.04-7.92
		c-2.92-1.005-6.397-1.805-9.84-2.64c-3.325-0.806-7.057-1.94-10.32-2.16c-4.942-0.333-8.964-0.502-13.92-0.72
		c-2.066-0.091-4.234-0.258-6.24-0.24c-6.021,0.055-11.186,1.566-16.8,1.92c-4.785,0.302-8.13,1.328-12.24,1.92
		c-4.779,0.689-9.954,0.946-13.68,1.92c-0.822,0.214-2.214,0.101-2.64,1.2c3.496,0.513,7.446-0.106,11.04-0.48
		c3.688-0.384,7.348-0.748,9.6-2.64c0.783,1.323,2.067-0.681,3.12,0.24c-1.599,6.336-11.195,6.608-19.2,6.96
		c-2.115,0.093-4.264,0.176-5.76,0c-2.618-0.307-4.153-2.123-6-2.4c-0.532,0.748,0.019,2.579-0.48,3.36
		c-1.078,0.925-3.078,1.536-4.56,0.72c-0.681,1.571-2.332,2.717-4.32,1.68c0.237,1.71,2.358,3.541,3.36,5.28
		c1.646,0.034,2.653,0.707,3.84,1.2c1.413-1.11,3.411-0.153,4.8-1.2c0.904-0.185,1.147,0.292,1.92,0.24
		c0.153-0.895-1.132-1.728,0-2.16c3.147-0.317,2.976,3.748,5.04,4.32c1.348,0.374,3.254-0.624,4.32-0.72
		c1.353-0.123,2.781-0.089,4.08,0c6.855,0.467,13.812,1.283,20.4,2.4c3.229,0.547,6.419,1.313,9.6,1.92
		c3.309,0.63,6.732,1.086,9.84,1.92c4.385,1.177,8.765,3.782,13.44,5.28c3.689,1.182,7.282,2.453,10.32,3.84
		c5.364,2.45,10.694,5.307,16.08,7.68c4.478,1.973,8.463,4.487,12.72,6.24c1.729-2.52-2.645-3.749-0.96-6.96
		c3.555,0.605,5.884,2.436,5.76,6.72c1.435-0.593,1.448-3.113,3.36-3.12c1.446-0.006,2.683,1.51,1.92,3.84
		c1.893-0.165,3.635,1.123,4.08,3.12c4.027-2.156,5.059,2.568,4.08,6.24c2.495,3.456,6.358,0.188,9.6-1.2
		c6.747-2.889,14.653-6.018,20.16-8.88c-0.631,2.229-1.707,3.394-2.88,4.8c-0.664,0.795-1.065,1.492-1.68,1.92
		c-1.11,0.773-2.895,1.298-4.32,1.92c-3.019,1.317-5.826,2.628-8.64,3.84c-1.4,0.604-3.199,0.874-4.08,2.16
		c4.603,2.597,8.716,5.684,13.2,8.4c1.757-1.763,3.109-3.931,4.32-6.24c2.319-0.419,2.948-2.478,5.28-1.44
		c-1.407,3.873-4.201,6.359-6,9.84c1.097,0.823,2.082,1.758,3.6,2.16c2.979-8.461,6.423-16.457,9.12-25.2
		c-0.95-0.97-2.296-1.544-2.64-3.12c-2.495,0.255-2.421-2.059-4.08-2.64c-3.19,0.986-4.735-1.2-5.28-3.6
		c-6.445-0.595-8.285-5.795-12.72-8.4c0.613-0.984-0.679-1.673,0-2.88C294.999,72.401,286.335,68.445,279,63.36z M789,58.8
		c-0.475-0.405-1.498-0.262-2.16-0.48c-0.776-0.263-0.75-1.33-1.68-1.44c-2.019,0.842-3.36,2.421-5.04,3.84
		c-4.561,3.852-9.779,7.412-12.96,12.24c3.986,0.88,8.926,0.715,13.2,1.2c2.183,0.248,4.217,1.034,6,0.96
		c0.845-0.035,2.083-1.393,2.88-2.16c2.344-2.258,4.204-4.375,5.76-6.96c-1.373-0.947-2.844-1.797-2.64-4.32
		C790.316,61.554,789.996,59.799,789,58.8z M142.2,58.56c-4.072,1.368-8.087,2.792-11.52,4.8c-2.798,3.156-6.469,5.081-9.84,7.44
		c-1.758,1.231-3.255,2.479-4.8,3.84c-3.764,3.319-7.555,6.78-11.04,10.32c0.878,0.642,0.655,2.385,1.92,2.64
		c4.508-1.172,6.41-4.951,11.76-5.28c3.169-1.479,5.382-3.462,8.16-5.04c3.647-2.072,7.097-4.151,11.04-5.76
		c2.08-0.849,4.556-1.186,6-2.64c0.151-1.228-0.298-3.201-0.48-5.04c-0.194-1.96,0.219-4.244-0.96-5.28
		C142.36,58.56,142.28,58.56,142.2,58.56z M148.44,68.64c1.787-0.453,4.527,0.046,6.24-0.48c-0.787-2.974-3.074-4.447-4.32-6.96
		c-1.433,0.312-1.483-0.757-2.64-0.72C147.687,63.473,148.077,66.043,148.44,68.64z M810.12,64.56
		c0.037,1.483,1.515,1.525,2.399,2.16c2.261,2.54,3.786,5.815,6.48,7.92c2.418-3.582,4.841-7.159,6.96-11.04
		C820.41,63.65,814.919,63.759,810.12,64.56z M803.16,66.72c-0.572-0.708-1.051-1.509-2.16-1.68c-0.04,0.28-0.38,0.261-0.72,0.24
		c-2.184,4.217-5.871,6.929-8.641,10.56c2.139,0.129,4.324,1.399,6.48,0.72c0.216-1.736-0.638-2.403-0.48-4.08
		c1.301-1.179,1.573-3.387,2.88-4.56c1.103,0.418,3.068-0.028,3.36,1.2c-0.216,0.775-0.811,2.075-0.479,2.64
		c3.152-0.734,3.957,2.475,7.199,2.4C808.627,71.173,806.96,67.88,803.16,66.72z M169.8,76.08c-1.58,0.3-2.107-0.453-3.12-0.72
		c-0.479,0.241-0.379,1.062-1.2,0.96c-1.406-0.676-2.37-0.826-3.36,0.24c-0.96-0.08-1.087-0.994-2.16-0.96
		c1.458,7.823,4.516,15.324,4.56,23.76c-1.846-1.674-2.768-4.272-4.08-6.48c-0.755-5.965-2.284-11.156-3.84-16.32
		c-2.372,0.988-5.263,1.458-7.44,2.64c0.371,3.964,1.039,9.869,0,13.68c-0.305-1.615-1.826-2.015-2.4-3.36
		c0.298-1.895-1.427-2.98-1.68-4.56c-0.215-1.343,0.811-2.982,0-4.8c-1.464-0.458-2.294-0.409-3.84,0
		c-2.521,0.666-3.533,1.189-5.52,1.92c-3.564,1.31-7.26,2.745-10.08,4.08c-0.72,0-1.44,0-2.16,0c-1.467,1.854-3.023,3.053-5.04,5.04
		c-1.275,1.256-4.547,3.642-4.32,5.76c0.102,0.953,2.101,2.367,3.12,3.36c1.298,1.266,2.483,2.528,3.36,3.36
		c4.364,4.142,8.806,6.777,9.12,14.16c-5.095-6.425-11.208-11.832-17.28-17.28c-0.644,2.196-2.718,3.905-3.6,6.24
		c-0.418,1.107-0.203,2.271-0.48,3.36c-0.351,1.382-1.9,3.082-1.68,4.56c0.326,2.188,4.901,4.165,5.52,6.72
		c0.3,1.242,0.04,2.129-0.96,3.84c-1.986-2.575-3.949-5.172-6.48-7.2c-0.938,1.281-1.893,2.644-2.16,4.32
		c-0.095,0.598,0.148,1.311,0,1.92c-0.85,3.496-3.532,6.636-4.08,10.08c8.915,4.205,18.28,7.96,27.36,12
		c-1.212,0.548-3.079,0.441-4.32,0.96c-6.292-2.348-11.977-5.303-18.48-7.44c-0.224,0.492,0.225,1.838-0.48,2.4
		c-0.949,0.382-1.392-0.222-2.16,0.24c0.819,1.593-0.711,2.336-1.2,3.36c0.375,1.438,0.264,2.708-0.48,3.6
		c3.513,3.368,6.9,6.86,11.28,9.36c-3.57,1.299-4.747-0.062-6.72-1.68c-2.9-2.378-5.599-5.479-8.64-6.96
		c-0.753,1.488-0.107,3.062-0.24,4.8c-0.285,3.727-1.667,7.688-1.68,11.76c0.801,0.399,2.364,0.037,2.88,0.72
		c-1.076,0.284-1.698,1.022-2.88,1.2c1.089,6.028-0.896,11.685-0.24,17.28c0.621,5.293-0.691,11.234-0.48,17.28
		c1.921,5.199,1.626,12.614,3.12,18.24c2.712,4.832,3.29,11.811,4.8,16.56c0.205,0.646,0.042,1.411,0.24,1.92
		c0.331,0.85,1.103,1.574,1.44,2.4c2.119,5.184,2.443,11.105,3.84,16.8c3.583,5.176,2.01,17.501,6.48,21.6
		c3.987-2.492,6.463-6.497,10.8-8.64c0.318,1.19,0.575,2.655,0.24,3.84c-2.41,2.31-4.876,4.563-7.2,6.96
		c1.039,1.219,2.548,3.24,0.96,5.04c0.676,0.975,1.715,2.422,0.96,4.08c1.388,0.692,1.992,2.167,2.16,4.08
		c7.517,0.729,14.34,0.869,20.64,0.72c-1.356,1.026-2.657,2.9-4.8,3.36c-1.514,0.325-3.743-0.141-6-0.24
		c-4.299-0.189-8.361-0.166-11.52,0c-0.349,1.214,0.869,2.764,1.2,4.08c5.167,2.674,11.611,4.069,16.8,6.72
		c-0.59,1.114-2.107,0.567-3.12,0.72c-0.825,0.125-1.496,0.509-2.16,0.48c-3.215-0.14-6.161-2.968-9.36-3.12
		c0.582,3.353,2.729,6.163,4.08,8.4c2.559,4.241,4.377,9.748,6.72,13.68c0.423,0.709,0.579,1.557,0.96,2.16
		c0.45,0.71,1.21,1.049,1.68,1.68c0.52,0.699,0.763,1.634,1.2,2.4c2.063,3.621,4.049,7.962,5.76,11.52
		c0.379,0.789,0.558,1.901,0.96,2.64c0.575,1.056,1.62,1.857,2.16,2.88c1.861,3.525,2.858,7.405,4.56,10.8
		c1.239,2.472,3.006,4.713,4.32,6.72c1.54,2.352,2.811,4.989,4.32,7.44c1.861,3.022,4.054,6.226,6,8.64
		c2.107,2.614,3.629,5.836,5.28,8.88c3.589,6.619,8.771,12.789,11.52,19.919c1.573,1.964,3.027,4.022,4.32,5.761
		c3.598,4.835,6.047,11.656,10.08,15.6c3.534,0.066,5.826,1.374,7.92,2.88c2.572-1.748,4.269-4.371,7.2-5.76
		c1.803,1.067,0.836,3.354,0,4.56c-1.286,1.854-4.769,3.232-5.28,5.28c1.354,0.887,2.6,1.881,2.88,3.84
		c1.427,0.413,2.108,1.572,2.64,2.88c1.454,0.466,2.144,1.696,3.36,2.4c8.503-2.938,16.457-7.703,25.68-9.12
		c-1.171,2.269-3.855,3.025-5.04,5.28c-5.895,1.547-11.487,4.443-16.56,6.479c-1.778,0.714-4.017,0.854-5.04,2.641
		c2.361,4.216,6.136,7.177,9.36,10.56c3.232,3.393,6.641,6.655,9.6,10.32c2.129,1.175,3.91,3.197,5.28,4.8
		c0.579,0.678,0.911,1.479,1.44,2.16c2.059,2.65,4.284,5.021,6.24,7.68c2.363,1.701,4.201,4.04,6,6.24
		c1.898,2.321,3.718,4.508,5.76,6.72c2.013,2.182,4.062,4.379,5.76,6.72c1.747,2.409,2.992,5.223,4.8,7.681
		c1.764,2.398,3.996,4.382,5.76,6.72c2.873,3.806,5.586,8.294,8.4,11.76c1.672,2.06,3.504,3.896,5.04,6
		c0.812,1.114,1.388,2.829,2.88,3.36c0.842-2.438,0.922-5.639,2.4-7.44c2.912,3.078,1.249,8.436,1.2,13.44
		c0.685,0.675,1.361,1.358,1.92,2.16c3.33-0.21,5.281,0.958,6.96,2.399c-0.064,0.864,0.443,1.157,0.48,1.92
		c1.546,0.614,2.541,1.779,2.88,3.601c2.438,0.602,2.2,3.88,4.32,4.8c4.456-2.579,9.133-5.039,13.2-7.68
		c1.411-0.916,2.504-2.258,4.08-2.88c-1.105,8.174-9.56,9-14.4,13.439c5.845,4.795,9.957,11.323,17.04,14.88
		c0.693-3.387,2.758-5.401,3.6-8.64c0.988-0.213,2.21-1.199,3.36-0.48c-0.137,3.863-2.376,5.625-3.12,8.881
		c0.9,0.715,1.842,0.184,2.88,0.96c0.395,2.485,3.721,2.039,4.08,4.56c0.811,0.084,2.438,0.316,2.88,1.44
		c0.402,0.397,0.191,1.408,0.24,2.159c8.219-1.158,14.721-6.051,23.52-6c1.181,0.007,3.476-0.343,3.6,1.2
		c-0.89,0.688-2.067,0.717-3.12,0.96c-5.402,1.25-10.803,3.302-15.84,4.8c-2.086,0.621-4.479,0.82-6,2.4
		c1.162,1.638,3.318,2.281,4.08,4.32c4.191,3.185,9.192,5.902,12.96,10.08c3.772,4.181,8.812,6.753,12,11.04
		c0.421,0.565,0.524,1.316,0.96,1.92c1.652,2.287,4.337,4.05,6.24,6.239c2.021,2.327,4.107,4.621,5.04,7.681
		c1.853,1.799,3.187,3.938,4.8,6c1.927,2.463,4.593,4.85,5.52,7.92c3.755,3.845,7.565,7.636,11.04,11.76
		c0.192,0.448,0.401,0.879,0.48,1.44c2.632,2.327,4.44,5.479,6.96,7.92c0.176,0.863,1.892,0.188,2.16,0.96
		c-0.318,0.401-0.636,0.804-0.48,1.68c1.385,1.684,2.265,3.385,3.36,4.8c3.082,3.981,7.049,7.719,9.12,12.24
		c1.689,1.19,2.446,3.314,4.32,4.32c1.608-0.232,2.736-0.944,4.32-1.2c4.193-5.346,5.302-15.51,12.24-17.04
		c-3.596,6.324-6.947,12.893-10.08,19.68c1.294,0.626,2.25,1.591,2.4,3.36c1.791,0.209,2.34,1.659,3.12,2.88
		c3.646-6.802,10.888-9.892,16.56-14.4c4-3.18,8.144-5.756,12.24-8.64c1.973-1.389,3.761-3.17,5.76-4.56
		c4.112-2.859,8.825-4.979,12.24-8.641c-4.059-4.342-9.691-7.108-14.64-10.56c0.51-1.796-1.304-2.528-0.48-3.84
		c6.132,1.947,9.811,6.35,15.12,9.12c3.268-1.853,6.196-4.044,9.36-6c0.999-0.196,2.003,0.326,2.399,0
		c0.725-4.267,1.701-9.902,2.641-14.641c0.93-4.692,1.438-10.264,6.72-10.08c-1.338,2.925-2.845,5.468-3.601,9.12
		c-0.889,4.296-1.746,8.964-2.159,13.68c1.321,0.136,2.256-1.22,3.119-1.92c2.135-1.729,4.44-3.026,6.48-4.56
		c1.099-0.826,1.824-1.847,2.88-2.88c1.857-1.818,3.943-3.414,6-5.04c2.116-1.673,4.627-2.893,6.72-4.561
		c1.307-1.041,2.302-2.35,3.601-3.359c4.158-3.234,8.676-5.236,12.96-8.4c3.362-2.483,7.205-4.934,10.8-6.96
		c5.382-3.033,9.79-6.547,15.6-9.359c6.747-3.267,11.381-6.611,18.24-10.32c1.551-0.839,8.466-4.329,8.641-5.76
		c0.097-0.801-1.353-2.234-2.4-3.12c-3.062-2.59-7.276-5.396-9.12-8.16c-1.106-1.659-1.992-3.426-0.96-5.76
		c3.958,4.842,8.855,8.744,13.68,12.72c1.814-0.586,2.837-1.964,4.08-3.12c2.034-0.525,2.621-2.499,5.04-2.64
		c1.035-2.58,5.088-2.685,8.16-1.92c0.891-0.47,1.682-1.039,2.64-1.44c0.812-4.388,1.12-9.28,4.561-11.04
		c0.888,1.592,0.32,4.64,0.479,6.96c2.642-1.275,4.954-3.017,7.44-4.56c2.466-1.531,5.183-2.87,7.439-4.561
		c2.339-1.75,4.317-3.678,6.721-5.279c2.363-1.577,5.029-2.892,7.439-4.561c2.362-1.636,4.405-3.648,6.721-5.28
		c2.345-1.652,4.864-3.113,7.439-4.56c5.079-2.853,9.724-6.459,15.36-8.64c5.372-3.606,10.723-7.274,16.8-10.08
		c6.021-2.78,11.429-7.001,17.76-9.36c-1.408-1.506-3.247-2.754-5.279-3.84c-1.994-1.065-4.732-1.105-6.24-2.88
		c2.901-0.737,5.53,0.401,9.12,0c2.436,1.243,4.128,3.231,6.72,4.319c1.221-1.179,3.312-1.488,3.84-3.359
		c-7.063-4.456-14.17-8.87-22.08-12.48c-0.452-2.669-3.782-3.736-4.08-5.76c6.845,1.986,13.717,6.811,19.92,10.32
		c1.612,0.912,5.114,3.393,6.721,3.359c1.301-0.026,2.275-1.79,3.6-1.199c0.819-1.341,2.338-1.982,4.08-2.4
		c-0.936-1.675-2.125-3.237-3.36-4.8c-1.18-1.493-3.112-2.601-3.359-4.32c2.836-0.582,4.767,0.537,6.239,1.92
		c1.578,1.481,2.138,4.151,4.32,4.8c-1.186-3.854-5.498-4.581-5.52-9.6c3.256-2.732,6.172,5.582,8.88,6
		c0.836,0.129,1.619-0.546,2.399-0.72c1.015-0.228,1.781-0.083,3.36-0.48c0.712-1.339,2.112-2.244,2.88-3.6
		c0.35-0.618,0.332-1.528,0.72-2.16c0.693-1.13,1.793-2.19,2.641-3.36c0.872-1.205,1.761-2.444,2.64-3.6
		c1.795-2.358,3.502-4.705,5.521-6.72c2.252-4.729,6.467-7.979,9.359-11.761c1.052-1.374,1.522-3.157,3.12-4.08
		c1.211-3.312,3.747-5.814,5.76-8.399c2.121-2.723,3.888-5.626,6.24-8.16c0.657-2.69,2.59-4.746,4.08-6.72
		c1.549-2.052,2.98-4.188,4.8-6c1.481-2.836,2.683-5.551,4.32-8.16c2.439-3.886,5.116-7.339,6.96-11.521
		c-9.113-2.662-18.13-6.783-26.64-9.6c-1.219-0.403-2.941-0.251-3.841-1.44c2.351-0.196,4.964-1.034,7.2-0.72
		c0.778,0.109,1.87,0.837,2.88,1.2c7.507,2.697,14.617,5.056,22.08,7.2c1.554-2.777,3.336-5.299,5.04-7.92
		c0.801-1.231,1.904-2.505,2.641-3.841c1.1-1.996,2.171-4.234,2.64-6.479c-4.777-4.071-10.884-7.912-15.12-12.24
		c-0.563-0.576-1.537-1.287-1.44-2.16c2.419,0.461,4.834,0.926,6.24,2.4c0.79,0.01,1.195,0.405,2.16,0.24
		c3.171,3.069,6.552,5.929,10.561,8.16c1.417-2.502,3.14-4.7,4.079-7.68c-11.687-3.284-23.141-7.384-33.84-11.04
		c-1.643-0.562-3.272-0.877-4.8-1.68c1.489-1.311,5.004-0.596,6.96-1.44c9.265,3.456,18.895,6.546,29.04,9.12
		c0.531-1.309,1.544-2.136,2.88-2.64c-1.021-2.414,0.956-3.602,1.681-5.04c-0.31-0.65-0.588-1.333-0.48-2.4
		c0.432-1.648,2.558-1.602,3.36-2.88c-0.74-1.791-0.442-4.121,0-6c-4.76-4.855-10.937-9.244-15.36-14.16
		c-0.51-0.566-1.771-1.357-1.44-2.4c2.317,0.403,4.507,0.933,5.761,2.4c0.72,0,1.439,0,2.16,0c2.929,3.791,6.634,6.805,10.8,9.36
		c0.749-2.611,2.144-4.577,2.399-7.68c1.162-0.474,1.356-1.661,2.641-1.44c0.616-4.797,0.791-9.275,1.439-13.44
		c0.481-3.09,1.13-6.298,1.44-9.36c0.188-1.864-0.068-3.852,0-5.76c0.225-6.279,2.593-11.776,1.68-18.24
		c-0.901-6.378,0.063-14.142-0.96-20.4c-0.158-0.965-0.616-1.68-0.72-2.64c-0.623-5.78,1.033-13.141-0.96-18.48
		c-11.032,3.048-21.874,6.287-33.12,9.12c1.068-2.052,2.471-3.769,4.32-5.04c7.961-2.039,15.863-4.137,23.04-6.96
		c-0.719-1.493,0.119-2.928,0.72-3.84c-1.42-1.347-0.786-3.442-0.24-5.28c-1-1.041-1.51-2.883-1.44-4.32
		c-4.488-1.751-8.64-3.84-14.64-4.08c1.414-1.312,2.408-2.932,4.32-3.12c1.798-0.177,4.541,0.971,6.72,1.68
		c2.394,0.779,4.636,1.772,6.72,1.92c-1.338-4.342-2.077-9.283-3.6-13.44c-1.891,0.27-3.412,0.908-5.28,1.2
		c1.146-2.054,3.149-3.25,4.32-5.28c-0.313-1.931-1.815-3.333-2.64-5.04c-1.281-2.649-1.931-5.879-2.881-8.88
		c-0.69-2.183-1.226-4.551-1.92-6.72c-0.61-1.907-1.586-3.36-2.159-4.8c-0.573-1.436-0.793-3-1.2-4.56
		c-0.942-3.604-2.131-7.587-3.601-10.8c-0.948-2.074-2.328-2.865-3.359-4.561c-1.389-2.281-2.508-5.022-3.84-7.439
		c-0.653-1.185-1.266-2.419-1.921-3.6c-0.67-1.21-1.318-2.68-2.159-3.6c-0.662-0.724-1.753-0.993-2.4-1.68
		c-0.926-0.983-1.53-2.589-2.4-3.84c-0.89-1.28-2.003-2.392-2.88-3.6c-2.316-3.194-3.957-7.215-7.439-8.64
		c-3.72-4.841-7.809-9.312-12-13.68c-3.539-1.501-5.501-4.269-8.4-6.72c-3.659-3.095-6.381-6.486-12-7.2
		c-2.191,3.573-4.6,6.724-7.2,9.84c-2.577,3.088-5.574,5.821-7.68,9.36c-4.158-3.562,0.927-6.794,3.84-10.08
		c2.203-2.485,4.146-4.797,5.04-7.2c-1.608-0.631-3.161-1.319-3.12-3.6c-2.166,0.166-2.65-1.35-3.84-2.16
		c-2.158,0.318-2.972-0.708-4.32-1.2c-4.997,4.096-9.629,8.721-13.68,13.44c-1.376,1.603-2.756,3.37-4.32,4.8
		c0.25-2.532,0.511-5.796,1.681-7.2c3.348-4.017,8.087-7.982,11.76-11.52c1.341-1.292,2.94-2.511,3.6-4.32
		c-4.554-1.595-9.197-4.696-14.64-5.28c-0.562-0.06-1.317,0.279-1.92,0.24c-2.146-0.138-4.78-1.321-7.44-1.92
		c-2.491-0.561-5.141-1.358-7.439-1.68c-2.315-0.324-4.117,0.141-5.76,0.24c-2.434,0.146-5.306-0.75-7.921-1.2
		c-2.609-0.449-5.132-1.054-7.68-1.44c-2.95-0.447-6.047-0.111-8.88-0.24c-2.007-0.091-4.302-0.704-6.479-0.24
		c-1.441,0.307-3.302,1.861-5.04,2.88c-1.807,1.059-3.569,2.093-5.04,3.12c-9.691,6.765-20.38,12.669-30.24,18
		c0.752,1.199-0.685,1.99,0,3.12c-5.253,2.827-7.452,8.708-14.641,9.6c-0.604,2.152-1.442,3.667-3.359,4.08
		c-1.013,0.218-2.254-0.695-3.12,0.24c1.339,0.741,3.916,0.244,4.8,1.44c-0.777,2.994-5.709,1.19-8.399,1.2
		c-0.886,1.435-2.379,2.262-3.36,3.6c2.586,6.722,5.417,14.235,8.4,20.88c2.036,4.537,4.29,8.715,1.68,14.16
		c-4.86-10.358-9.437-21.704-13.92-32.16c-0.623-1.453-1.084-3.258-2.4-4.32c-6.176,3.423-11.272,7.927-16.56,12.24
		c-0.355,0.525-0.469,1.292-0.96,1.68c-0.557-0.077-0.922,0.039-1.2,0.24c-9.028,6.931-18.664,13.46-27.601,21.84
		c-4.091,3.837-8.401,8.047-12.72,12c-2.09,1.913-4.679,3.716-6.96,5.52c-2.436,1.926-4.734,3.984-7.2,5.28
		c-2.845,1.496-5.834,2.789-8.88,4.32c-2.903,1.46-5.816,3.04-8.88,4.32c-3.044,1.272-6.445,2.236-9.84,3.36
		c-3.419,1.131-6.938,2.425-10.56,2.88c-6.557,0.824-12.646-1.563-18.721-2.16c0.618,2.018,2.243,3.896,3.84,6
		c1.422,1.874,3.748,4.171,4.08,6c0.307,1.691-0.321,4.06-2.16,4.8c-0.895-4.226-3.977-6.698-6.24-9.6
		c-1.999-2.563-3.532-5.283-5.28-8.16c-1.57,0.459-2.373,1.657-4.08,1.44c-1.626-0.207-1.752-1.614-3.12-2.16
		c-2.48,1.087-3.463-1.095-4.8-1.92c-3.963,1.307-4.188-2.942-4.32-6.24c-5.755,1.127-8.101,5.099-10.56,9.6
		c-3.165,5.794-6.776,12.108-9.36,18c-1.638,1.163-3.499,3.379-6.24,2.64c0.566-1.324,1.458-2.384,2.16-3.6
		c5.082-8.804,8.625-18.67,14.64-26.4c-0.769-0.111-0.846-0.914-1.68-0.96c-1.667,4.493-4.61,7.71-6.48,12
		c-0.424,0.891,0.269,1.648-0.48,1.92c-1.372-0.869-2.05-2.43-2.4-4.32c0.754-1.543,1.713-3.045,2.64-4.56
		c0.923-1.508,2.216-3.076,2.16-4.8c-10.894,2.293-18.851-0.26-27.12-3.84c-5.129-2.221-9.905-4.699-13.92-6.96
		c-4.628-2.606-8.668-5.167-12.48-8.16c-3.943-3.096-7.759-6.097-11.52-9.36c-3.738-3.244-7.241-6.564-11.04-9.6
		c-3.883-3.104-7.73-6.228-11.76-9.12c-6.07-4.355-11.821-9.185-17.76-13.44c-2.056-1.473-3.939-3.469-6.48-4.08
		c-2.476,8.324-5.332,16.269-8.16,24.24c-2.569-3.344-1.375-6.633-0.24-10.08c1.519-4.613,3.352-9.508,4.32-13.92
		c-0.869-0.892-2.222-1.298-2.64-2.64c-2.135,0.055-2.438-1.722-3.84-2.4c-2.538-0.183-4.206-1.234-4.8-3.36
		c-5.342-1.379-7.906-5.534-12-8.16c0.12-1-0.702-1.059-0.48-2.16c-1.714-0.686-2.797-2.003-4.8-2.4
		c-0.437,7.339-2.51,14.268-1.92,21.84c-1.217,0.783-2.233,1.767-1.92,4.08c-1.372-0.251-1.136,1.104-2.16,1.2
		c-1.637-4.365-0.28-9.391,0.24-14.16c0.508-4.661,0.901-9.372,1.2-13.44c-1.408-0.992-3.072-1.728-3.84-3.36
		c-2.458,0.299-2.948-1.372-4.32-2.16c-2.37,0.29-2.889-1.271-4.56-1.68c-5.511,3.979-11.009,8.027-16.56,11.76
		c-3.393,2.281-6.602,4.785-12.24,4.32c-0.639-0.721-1.861-0.859-1.92-2.16c1.585-1.359,3.766-1.025,5.52-1.68
		c2.122-0.792,4.221-2.507,6.24-3.84c2.058-1.359,4.131-2.788,6-4.08c4.137-2.86,8.251-5.529,11.52-8.88
		c-3.46-1.876-6.564-4.296-10.08-6.24c-3.606-1.993-7.627-3.267-11.28-5.28c-1.38-0.761-2.398-1.747-3.84-2.4
		c-4.471-2.025-9.053-3.732-13.92-5.28c-10.564-3.36-21.732-6.102-33.84-7.68c-3.539-0.461-6.94-0.468-10.32-0.96
		c-3.288-0.479-6.592-1.411-10.08-0.96c4.644,1.485,11.168,3.487,17.04,2.16c0.432,1.301,2.175-0.134,2.64,1.2
		c-0.851,2.584-4.224,2.405-6.96,2.16c-6.294-0.564-14.877-2.561-17.76-5.76c-0.16,0-0.32,0-0.48,0
		C170.184,74.224,170.915,76.074,169.8,76.08z M781.8,80.88c-3.8-0.638-6.992-0.481-10.56-0.72c-3.665-0.246-7.32-1.431-10.8-1.68
		c-5.961-0.427-11.937-0.793-18-1.2c-2.137-0.144-5.086,0.043-6.48,0.24c-5.276,0.744-10.863,0.772-15.84,1.2
		c-6.257,0.539-12.137,2.498-17.76,4.08c-5.961,1.677-11.889,2.74-16.32,5.76c5.873,0.162,11.117,1.499,16.56,2.16
		c3.377,0.41,6.976,1.035,10.32,0.96c1.896-0.042,3.51-0.179,5.28,0.24c5.058,1.195,10.277,3.33,15.359,3.84
		c2.258,0.227,4.209,0.439,6.24,0.96c1.769,1.672,4.933,1.947,7.44,2.88c0.889-1.271,1.145-3.175,2.16-4.32
		c-0.432-2.912,1.465-3.495,0.96-6.48c1.007-0.592,1.464-1.735,3.12-1.68c2.208,2.533-0.643,6.799-0.721,10.08
		c0.747,0.627,1.521-0.256,2.641,0c1.1,0.26,0.793,1.927,1.92,2.16c1.433-0.2,1.398-0.005,2.64,0.24
		c0.548,0.572,0.772,1.467,0.96,2.4c4.556-0.756,4.567,2.894,3.84,6.24c1.741,2.025,2.994,1.271,6.24,0.479
		c7.647-1.862,14.075-3.749,21.12-5.28c4.426-0.961,7.53-1.926,11.28-1.68c1.885,0.124,5.312-0.611,6.239,1.68
		c-1.011,1.515-3.11,1.027-4.56,1.2c-5.105,0.609-9.927,2.037-14.64,3.12c-6.379,1.466-12.722,3.013-18.721,4.8
		c0.283,1.345,1.972,1.155,2.88,1.68c1.005,0.581,1.472,1.761,2.641,1.92c-0.011,0.73,0.507,0.933,0.72,1.44
		c4.188,2.345,6.755,6.858,10.32,9.36c0.559,0.393,1.319,0.482,1.92,0.96c1.098,0.874,1.96,2.243,2.88,3.36
		c0.953,1.158,1.926,2.283,2.88,3.36c2.63,2.967,4.938,6.735,8.16,8.64c1.57,2.581,3.432,5.011,5.28,7.439
		c1.9,2.498,3.28,5.403,5.279,7.68c1.357,1.546,3.039,2.622,3.84,4.56c0.237,0.563,0.422,1.179,0.48,1.92
		c2.184,2.435,3.029,5.525,4.56,8.64c1.713,3.485,4.844,6.168,5.04,10.56c2.303,3.97,2.242,9.218,4.08,13.68
		c0.918,2.228,2.729,4.048,2.4,6.96c2.632,4.248,2.906,10.854,6.24,14.4c5.351-1.449,10.897-2.702,16.08-4.32
		c-0.229-1.829,0.256-2.943,0.96-3.84c-0.829-1.526-0.49-3.957,0.479-5.04c-0.663-1.472-1.575-2.665-0.96-4.8
		c-4.306-1.774-7.765-4.395-13.2-5.04c1.032-1.368,2.38-2.421,4.32-2.88c4.348,1.172,7.462,3.578,12,4.56
		c-1.147-5.816-1.752-14.245-3.36-20.4c-1.809-2.752-2.315-7.155-3.12-11.28c-0.623-3.2-1.182-6.516-1.68-9.6
		c-1.734-2.903-1.58-7.529-2.399-11.52c-0.665-3.233-1.68-6.099-2.4-8.88c-2.349-2.538-3.146-6.421-4.56-10.08
		c-1.015-2.625-1.685-5.863-3.12-7.92c-0.688-0.985-1.771-1.646-2.4-2.64c-2.28-3.597-3.956-7.899-5.76-11.52
		c-0.63-1.263-1.182-2.881-1.92-3.84c-0.556-0.721-1.571-1.197-2.16-1.92c-2.036-2.5-3.069-5.811-5.04-8.4
		c-1.181-0.259-1.907-0.972-3.36-0.96c-0.913,4.178-1.746,8.652-2.399,13.2c-0.74,5.144-1.895,11.137-1.681,16.08
		c-0.916,1.324-2.001,2.479-1.92,4.8c-1.386,0.854-2.208,2.272-3.359,3.36c-0.445-12.394,2.528-23.371,3.6-35.04
		c-1.438-0.158-1.499,1.061-2.88,0.96c-1.299-0.301-1.396-1.805-2.64-2.16c-2.102,1.554-3.778-0.647-4.801-1.68
		c-1.216,1.121-3.972,0.568-4.8-0.72c-0.494-0.945-0.003-2.876-0.72-3.6c-1.398,0.421-2.594,1.741-4.32,2.4
		c-3.223,1.231-8.806,1.16-13.2,0.96c-7.986-0.363-16.925-0.745-17.76-6.72c1.528-0.678,2.653,0.752,3.84-0.48
		c0.418,0.623,1.084,0.997,1.681,1.44c4.842,0.843,10.998,1.635,16.319,1.2C784.57,80.702,782.97,81.076,781.8,80.88z M785.88,81.36
		c-0.247,0.553-0.826,0.774-0.72,1.68c1.777,0.018,3.385-0.135,4.8-0.48C789.465,81.295,787.169,81.831,785.88,81.36z M314.52,83.28
		c-0.284-0.071-0.907-0.967-1.2-0.24C313.604,83.11,314.227,84.007,314.52,83.28z M832.44,94.08c1.427,2.333,2.481,5.038,4.56,6.72
		c1.913,4.147,4.326,8.194,6.24,12c1.797,3.575,3.597,6.43,5.279,9.6c0.169,1.995,1.191,3.625,1.921,5.52
		c1.018,2.648,1.599,5.409,2.64,7.92c0.518,1.249,1.412,2.283,1.92,3.6c0.536,1.391,0.431,2.937,0.72,4.56
		c0.261,1.46,0.713,2.883,0.96,4.32c0.528,3.062,0.626,6.415,1.44,9.36c0.497,1.798,1.466,3.364,1.68,5.28
		c0.321,2.868,0.688,4.108,1.2,6.24c0.771,3.211,1.058,6.042,1.92,8.64c0.456,1.373,1.159,2.469,1.44,3.84
		c0.299,1.458,0.065,2.848,0.239,4.32c0.41,3.458,1.496,6.872,1.92,10.32c2.101-0.069,3.068-1.875,4.08-3.12
		c1.096-1.347,2.134-2.9,3.12-4.32c1.13,0.81,2.453,0.254,2.88,1.44c0.516,1.431-1.685,3.744-2.88,5.28
		c-1.456,1.872-2.789,3.683-3.6,4.56c1.094,0.284,1.765,1.753,3.12,1.92c0.785,0.097,2.271-0.661,3.6-0.96
		c9.09-2.047,19.635-3.573,27.84-5.52c-1.605-5.834-4.464-10.417-6.24-16.08c0.11-0.67,0.14-1.298,0-1.92
		c-0.663-2.967-2.812-5.945-4.319-8.88c-1.708-3.327-4.072-6.9-4.08-11.52c-1.956-4.404-4.378-8.259-6.48-12.24
		c-0.746-1.413-1.701-2.902-2.159-4.32c-0.253-0.781-0.162-1.845-0.48-2.64c-0.539-1.348-1.974-2.972-3.12-4.32
		c-2.985-3.511-6.168-6.851-8.64-10.32c-2.548-3.576-5.081-5.78-8.641-8.64c-1.207-0.97-2.366-2.145-3.6-3.12
		c-1.271-1.005-2.757-1.798-3.84-2.88c-0.665-0.664-1.024-1.742-1.68-2.4c-0.508-0.509-1.471-1.13-2.16-1.68
		c-3.663-2.919-8.248-5.271-12-7.68c-1.649-1.059-2.967-2.526-4.561-3.36c-0.053-0.187-0.201-0.279-0.479-0.24
		C832.189,93.69,832.312,93.887,832.44,94.08z M650.76,97.2c-2.517,0.681-5.136,1.562-7.68,2.16c-5.45,1.28-11.022,2.009-15.6,4.08
		c-1.613,0.729-2.959,1.544-4.561,2.16c-3.294,1.267-6.499,2.5-9.6,3.84c-1.498,0.647-3.425,0.985-4.561,2.4
		c0.57,1.726,1.983,2.865,3.36,4.8c0.944,1.327,2.02,4.398,3.6,4.56c0.947,0.097,4.443-2.483,5.521-3.12
		c9.566-5.658,19.363-10.294,28.319-15.6c3.25-1.925,6.769-3.898,9.36-6c0.09-0.073,1.373-0.542,0.48-0.96
		C656.37,95.985,653.703,96.404,650.76,97.2z M444.84,163.68c-2.245,0.574-4.727,1.287-7.2,1.44c-3.703,0.229-7.645-0.85-11.04-1.92
		c-5.765-1.817-11.266-3.895-16.08-6.24c-4.19-2.041-8.04-4.276-11.76-6.48c-5.757-3.41-10.183-8.35-15.12-12.48
		c-3.309-2.768-5.938-6.246-9.12-9.36c-3.036-2.972-6.553-5.609-9.84-8.4c-3.372-2.863-6.844-5.717-10.32-8.16
		c-7.285-5.12-13.364-11.603-20.64-16.08c-0.307-0.013-0.333-0.308-0.72-0.24c-3.877,9.403-7.411,19.149-11.04,28.8
		c7.681,5.671,16.812,8.02,24.24,13.68c1.771,1.35,3.641,2.583,5.52,3.84c5.706,3.815,11.071,8.112,16.8,11.76
		c3.868,2.463,7.98,4.59,12,6.96c5.997,3.537,12.128,6.843,18.24,10.08c4.964,2.629,10.639,6.146,15.84,8.16
		c1.159,0.448,2.576,0.466,3.84,0.96c1.561,0.61,2.796,2.066,4.32,2.88c5.374,2.872,11.792,4.513,17.52,6.96
		c1.138-0.062,0.626-1.774,1.92-1.68c0.716-0.598,1.535,0.155,2.16-0.24c-0.441-3.068,0.797-6.118,0.72-8.88
		c-0.094-3.355-1.126-5.594-1.92-7.68c1.141-0.139,2.213-0.347,3.6-0.24c1.39-3.171,3.657-5.463,4.8-8.88
		C449.329,162.36,447.1,163.103,444.84,163.68z M102.84,103.2c0,0.64,0,1.28,0,1.92c-0.789,0.571-1.357,1.363-2.4,1.68
		c0.469,1.291,1.1,2.421,2.16,3.12c1.103-1.695,0.893-3.931,1.68-5.76c0.562-1.307,2.401-2.321,1.68-3.84
		C105.672,102.033,104.171,102.531,102.84,103.2z M94.44,105.36c-0.241,0.001-0.286-0.194-0.48-0.24
		c-1.05,0.79-1.937,1.743-3.6,1.92c-2.617,2.663-5.321,5.239-7.2,8.64c3.764,4.795,7.118,10.002,11.52,14.16
		c2.062-5.457,3.872-11.167,6.24-16.32C98.499,111.061,96.986,107.694,94.44,105.36z M588.6,121.92
		c3.11,2.01,6.549,3.692,10.08,5.28c0.568-1.112,1.685-1.676,3.601-1.44c0.851-1.789,1.945-3.334,4.8-3.12
		c0.085-1.275,0.98-1.74,1.2-2.88c-1.352-1.848-2.35-4.05-4.08-5.52C598.509,116.309,592.809,118.369,588.6,121.92z M78.36,124.56
		c-0.169,0.604,0.126,1.266,0,1.92c-0.208,1.078-1.121,2.396-1.68,3.6c-1.853,3.988-3.89,7.46-5.52,11.04
		c5.498,0.662,10.719,1.601,16.32,2.16c0.059-1.019-0.628-1.292-0.48-2.4c0.998-0.701,1.361-1.223,0.96-2.88
		c0.172-0.868,1.394-0.686,1.44-1.68c-0.138-0.501-0.595-0.685-0.48-1.44c0.562-1.358,1.67-2.169,3.84-1.92
		c-3.47-5.169-7.165-10.115-11.28-14.64C80.54,120.342,78.975,122.37,78.36,124.56z M622.2,125.04
		c0.459-0.101,1.032-0.087,0.96-0.72C622.701,124.421,622.127,124.407,622.2,125.04z M588.36,125.76
		c-1.172,0.429-1.681,1.52-3.601,1.2c-0.959,0.881-1.598,2.083-3.6,1.92c-0.489,1.511-2.146,1.854-3.12,2.88
		c1.653,4.267,2.804,9.037,4.32,13.44c4.692-3.467,9.299-7.021,13.92-10.56c-0.826-1.214-1.462-2.648-2.88-2.88
		c-1.778-0.29-2.584,1.388-4.561,1.2c-0.435-2.275,0.316-5.225,2.88-5.28C591.121,126.519,589.689,126.19,588.36,125.76z
		 M571.08,130.8c-3.704,1.851-7.883,3.382-11.28,5.76c-1.27,0.888-2.286,2.103-3.6,2.88c-3.482,2.06-7.468,3.905-10.8,5.76
		c-0.705,0.392-1.243,1.055-1.92,1.44c-2.988,1.697-6.192,2.568-9.12,4.08c-1.474,0.761-2.759,1.719-4.08,2.64
		c-2.625,1.83-5.258,3.556-7.92,5.28c-1.354,0.876-2.512,1.998-3.841,2.88c-5.416,3.597-11.485,6.287-17.039,9.6
		c-1.402,0.836-2.678,1.906-4.08,2.64c-1.495,0.782-3.224,1.032-4.32,2.4c0.3,1.386,1.236,2.471,1.92,3.6
		c0.718,1.187,1.763,2.365,1.68,3.6c-4.024-0.375-5.628-3.171-7.439-5.76c-5.096,3.399-11.528,4.947-17.521,7.44
		c-2.987,1.243-5.856,2.578-8.88,3.6c-3.005,1.016-6.459,1.679-8.64,4.08c0.64,0.959,2.467,0.732,3.36,1.44
		c1.008,0.272,0.679,1.881,1.92,1.92c2.616-0.457,3.401,0.919,4.8,1.68c0.398-0.402,1.409-0.191,2.16-0.24
		c0.993,0.207,1.207,1.193,2.16,1.44c3.685-2.688,7.277-5.657,10.56-8.4c2.031-1.697,3.883-4.252,6.96-4.56
		c1.042,1.982-0.884,2.913-0.72,4.8c-4.311,2.814-8.19,6.345-11.76,9.6c-1.211,1.104-2.835,2.128-3.36,3.84
		c2.327,1.085,4.735,1.768,7.68,2.4c0.915,0.196,1.924,0.534,2.88,0.72c8.12,1.579,13.725-1.311,20.4-3.6
		c4.951-1.698,9.601-3.454,13.68-5.52c4.17-2.113,8.504-4.141,12.24-6.72c7.652-5.284,13.761-11.592,20.399-17.76
		c6.928-6.436,13.297-11.5,20.881-17.52c1.463-1.162,3.448-2.616,5.52-4.08c2.047-1.447,4.799-3.084,5.04-4.56
		c0.183-1.117-0.715-3.051-1.2-4.56c-0.508-1.58-1.038-3.11-1.439-4.32c-1.109-3.34-1.812-6.574-3.36-8.4
		C571.938,130.054,571.406,130.637,571.08,130.8z M336.6,142.08c11.316,8.885,22.553,16.466,33.36,26.4
		c6.67,6.132,13.776,11.97,22.56,17.04c3.866,2.231,8.358,4.745,13.2,6.72c4.885,1.993,10.153,4.373,15.12,4.8
		c3.688,0.317,7.79-0.683,11.52-1.44c0.124-1.167-1.168-2.245-1.92-2.88c-0.996-0.842-2.265-1.374-3.36-1.92
		c-7.027-3.506-14.743-6.628-21.84-10.08c-9.517-4.628-18.873-9.951-27.6-15.12c-4.546-2.693-9.197-4.966-13.44-7.92
		c-4.208-2.93-8.459-5.743-12.72-8.64c-4.224-2.872-8.086-6.213-12.48-8.88c-4.517-2.741-9.563-4.344-14.16-7.2
		c-0.146,0.014-0.284,0.036-0.24,0.24C328.627,136.102,332.611,138.948,336.6,142.08z M61.56,146.64
		c-0.633,1.276-1.128,2.768-1.68,3.6c-0.649,0.978-2.862,2.116-2.88,3.36c-0.017,1.167,1.426,2.234,2.4,2.4
		c1.015-4.523,3.83-8.624,5.28-12.96c0.776-2.319,0.877-4.908,2.88-6.48c-0.038-0.283,0.041-0.681-0.24-0.72
		C65.257,138.461,63.216,143.301,61.56,146.64z M72.6,144.96c-0.86-0.413-1.481-2.099-2.4-1.68
		c-1.191,6.889-5.021,11.139-6.72,17.52c8.376,1.384,16.12,3.4,24.48,4.8c0.906-5.775,1.839-12.841,1.92-18
		C84.815,146.025,78.679,145.521,72.6,144.96z M467.16,158.16c-0.772,1.388-1.671,2.648-4.32,2.16
		c-1.205,3.063-4.481,2.314-6.48,0.48c-0.927,3.707-3.559,7.012-5.28,10.08c-1.593,2.841-1.77,3.557-0.96,6.72
		c0.903,3.529,1.46,6.657,2.64,9.6c3.916-1.696,8.114-2.84,12.24-4.32c2.579-0.925,4.92-2.431,7.44-3.36
		c2.641-0.974,5.357-1.783,7.92-2.88c2.545-1.09,5.153-2.163,6.96-3.84c-5.065-7.495-6.277-18.843-16.32-21.36
		C471.068,154.957,471.837,158.921,467.16,158.16z M54.36,161.04c0.697-0.263,1.704-0.217,2.4-0.48
		c-0.085-1.114-0.817-1.583-1.68-1.92C55.022,159.623,54.352,159.992,54.36,161.04z M440.52,161.28
		c0.813,0.089,1.854,0.649,1.68-0.72C441.286,160.446,440.702,160.662,440.52,161.28z M439.32,161.28
		c0.319,0.312,0.893,0.316,0.96-0.24C439.961,160.729,439.387,160.724,439.32,161.28z M68.52,165.84
		c-0.485,0.635-0.037,2.204-0.48,2.88c-0.634,0.646-1.754,0.806-2.88,0.96c0.482,2.722-1.201,3.279-1.92,4.8
		c0.817,2.044-0.264,3.548-0.96,4.8c3.551,1.694,5.967,5.334,9.6,6.96c1.127,0.504,2.432,0.147,3.36,1.2
		c-1.75,0.575-3.112,1.844-4.8,1.68c-0.956-0.093-2.163-1.148-3.36-1.92c-3.161-2.039-6.516-5.044-9.6-6.24
		c-1.123,1.394-0.381,2.883-0.48,4.32c-0.2,2.903-1.269,6.095-1.92,9.12c-0.689,3.204-1.833,6.471-1.68,9.6
		c0.026,0.539,0.413,1.185,0.48,1.68c0.649,4.763-1.487,9.472-1.44,14.4c3.202-0.66,6.737,1.321,7.44,3.12
		c-2.716-0.653-5.488,0.112-7.68,0.72c0.772,5.088-0.674,9.186-0.96,13.92c3.356,1.013,6.758,2.673,10.56,4.08
		c5.975,2.21,13.149,3.581,15.36,8.4c-8.709-3.21-17.722-6.119-26.4-9.36c0,1.52,0,3.04,0,4.56c1.262,2.728,1.177,7.183,1.44,11.04
		c0.224,3.286,0.906,6.301,1.2,9.12c1.632,1.65,1.8,3.976,2.4,6.72c0.963,4.403,2.249,9.342,3.12,13.68
		c0.762,0.759,1.454,1.882,1.68,2.64c1.856,6.208,2.832,14.5,5.04,19.92c0.954,2.341,1.64,4.533,2.64,6.48
		c2.094,4.079,4.234,7.759,6,11.76c3.833-2.727,6.145-6.976,10.32-9.36c0.229,1.291,0.298,2.742,0.24,4.32
		c-2.793,2.887-5.366,5.994-8.16,8.88c2.808,4.312,4.386,9.853,6.96,14.4c7.169-1.15,14.847-1.793,21.6-3.36
		c-2.092,1.45-3.549,4.115-6.48,5.04c-2.695,0.851-5.992,0.475-9.36,1.2c0.129,1.505,1.628,3.628,3.12,4.56
		c3.187-1.453,6.188-3.092,8.64-5.28c2.771,0.317,5.42-1.865,7.68-0.48c-2.758,3.103-7.204,5.258-10.8,7.44
		c-1.176,0.713-2.905,1.256-3.12,2.64c1.501,0.579,3.796,0.364,5.04,1.2c-0.517,0.749-0.952,1.006-1.92,1.44
		c-0.74,0.332-2.444-0.254-2.16,1.2c0.525,1.635,3.036,1.284,3.6,2.88c-0.155,3.115,2.743,3.177,2.88,6
		c1.618,0.29,2.263,2.088,3.84,2.4c1.474,0.292,4.645-0.225,6.96-0.48c2.208-0.243,4.4-0.699,6.48-0.96
		c7.217-0.907,14.753-2.884,20.16,0.24c-12.008,1.592-23.695,3.504-36.24,4.56c2.674,4.046,6.764,6.676,9.12,11.04
		c2.742,2.966,5.39,5.63,8.16,8.4c1.574,1.574,3.21,3.131,4.56,4.8c0.346,0.428,0.365,0.989,0.72,1.44
		c0.337,0.429,0.848,0.794,1.2,1.2c2.331,2.687,4.563,5.008,6.96,7.439c3.126,3.173,5.863,6.802,9.12,9.84
		c2.48,2.313,5.21,4.479,7.44,6.721c0.829,0.832,1.357,1.8,2.16,2.64c3.736,3.91,8.223,7.108,12,11.04
		c1.938,2.018,3.786,3.908,5.76,5.76c2.027,1.901,4.113,3.451,6.24,5.28c2.022,1.738,3.753,3.912,5.76,5.76
		c6.129,5.642,11.832,11.369,17.76,17.04c1.9-3.62,4.418-6.622,6-10.56c-2.357,1.518-5.093-0.859-3.6-3.12
		c-1.763,0.145-3.951-1.58-2.64-3.84c-2.206,0.666-3.785-0.459-3.36-3.12c-1.875-0.287-2.549-0.814-2.64-2.16
		c-0.111-1.646,1.737-2.236,1.92-3.6c-1.487-1.378-2.442-4.939-4.56-5.521c-1.473-0.404-4.095,0.157-5.76,0.24
		c-2.958,0.147-6.267,1.008-8.64,0.96c-0.715-0.015-1.262-0.384-1.92-0.48c-1.618-0.235-4.025,0.607-4.56-1.199
		c3.445-2.593,10.57-2.396,15.6-3.12c0.669-0.097,1.84,0.032,2.16-0.721c0.087-1.748-1.288-2.993-2.16-4.319
		c-0.909-1.383-1.762-2.87-2.64-4.32c-1.719-2.841-4.176-5.447-5.52-8.399c-1.039-2.283-1.98-3.814-3.12-5.761
		c-1.775-3.031-3.512-5.863-5.28-8.64c-0.931-1.462-1.538-2.968-2.4-4.561c-0.761-1.404-2.012-2.64-2.88-4.08
		c-1.378-2.287-2.5-4.603-3.84-6.48c-2.432-3.407-4.545-6.975-6.72-10.32c-2.646-4.07-5.775-8.109-7.68-12.48
		c-1.352-3.104-2.863-6.046-4.32-9.12c-1.398-2.951-3.316-5.806-4.56-8.88c-1.292-3.194-2.663-6.326-4.32-9.36
		c-1.6-2.928-3.832-5.545-5.28-8.64c-4.175-8.92-8.897-17.212-12.72-26.16c-2.932-1.333-7.991-2.743-6.24-7.2
		c-0.787-0.73-1.543-1.191-1.92-2.16c-0.269-0.692,0.208-1.455,0-2.16c-0.33-1.121-1.824-1.414-1.68-2.64
		c1.594-2.53-1.538-3.057-0.96-6c-4.759-1-11.732,0.212-13.44-3.84c-1.127-0.553-2.957-0.403-2.64-2.4
		c4.93,2.03,11.626,2.293,18.24,2.64c0.183-2.377-1.62-4.447-1.92-6.96c-0.476-3.989-1.225-6.691-1.92-10.32
		c-0.683-3.564-2.319-7.165-2.16-10.32c-1.841-3.833-1.988-8.515-3.6-12.72c-0.258-0.674-0.933-1.251-1.2-1.92
		c-0.562-1.408-0.453-2.687-0.72-4.32c-0.215-1.312-1.055-2.681-1.44-4.08c-0.433-1.572-0.6-3.206-0.96-4.8
		c-0.683-3.023-2.191-5.855-2.64-8.88c-0.585-3.939-0.896-6.758-1.44-10.32c-0.436-2.858-1.301-5.795-1.2-8.4
		c0.026-0.669,0.406-1.258,0.48-1.92c0.198-1.776-0.112-3.838,0-5.76c0.106-1.833,0.501-3.564,0.48-5.28
		c-0.019-1.498-0.551-3.037-0.48-4.56c0.031-0.669,0.407-1.277,0.48-1.92c0.371-3.269-0.5-6.626,0-9.84
		C82.165,168.035,75.319,166.961,68.52,165.84z M49.08,179.04c0,0.24,0,0.48,0,0.72c-0.453,1.228-0.156,3.204-0.24,4.8
		c-2.095,4.414-1.427,12.138-2.64,17.28c-0.235,0.997-0.869,1.938-1.2,3.12c-1.514,5.402-0.102,11.246-1.2,16.8
		c0.817,0.39,1.823,0.037,2.64-0.24c1.413-2.094,0.718-5.077,0.96-8.4c0.343-4.714,0.864-9.075,0.72-13.44
		c1.335-2.385,1.25-5.951,1.92-9.36c0.732-3.732,1.662-7.167,1.68-11.28C50.84,179.04,49.96,179.04,49.08,179.04z M448.68,189.36
		c0.411-1.126,0.018-3.322-0.96-3.84C447.834,187.006,447.354,189.085,448.68,189.36z M423.48,198.24
		c-0.037,0.699,0.973,0.729,1.2,0.48C424.731,198.006,423.824,197.874,423.48,198.24z M872.04,205.44
		c1.474,1.319,0.088,2.835-0.48,4.08c2.021,2.08,0.139,4.361-0.72,6c2.98,2.939,6.269,5.572,9.84,7.92
		c1.48,1.582,1.892,5.897-1.199,6c-1.329-3.331-3.437-4.827-6-6.96c-1.495-1.244-3.1-2.91-5.04-3.12
		c-0.703,1.021-0.063,2.205,0,3.36c0.158,2.905-0.567,5.104-0.721,7.2c-0.344,4.703-0.41,10.073,0,13.68
		c0.237,2.087-0.499,3.466-0.72,5.52c-0.356,3.317-0.359,6.132-0.48,8.88c-0.137,3.122,0.386,6.612-0.239,9.6
		c-0.178,0.846-0.764,1.59-0.96,2.4c-0.469,1.929-0.705,4.402-1.2,6.72c-0.481,2.249-1.218,4.681-1.2,6.72
		c0.004,0.483,0.284,0.957,0.24,1.44c-0.262,2.886-1.491,5.184-1.92,7.44c-0.774,4.073-1.854,8.125-2.16,11.52
		c-0.318,3.517-1.021,5.589-1.68,7.92c-0.817,2.892-1.36,5.638-2.16,8.4c-0.812,2.8-1.324,5.836-2.16,8.4
		c-0.938,2.877-1.574,5.854-2.4,9.12c-0.545,2.154-1.239,4.411-1.439,6.48c-0.352,3.631-1.197,5.714-1.92,8.16
		c-1.098,3.71-1.841,6.863-2.88,10.08c2.063,2.027,5.162,7.485,0.479,8.88c0.602,1.126,1.066,2.82,0.24,4.08
		c7.536,1.504,15.266,2.814,23.52,3.6c0.05-2.19,1.168-3.312,2.88-3.84c-0.431-2.591,1.01-3.311,1.921-4.56
		c-0.522-0.518-0.928-1.153-0.961-2.16c0.256-1.425,1.951-1.409,2.4-2.64c-0.886-1.424-2.487-2.989-4.08-4.8
		c-2.367-2.692-5.863-4.488-3.12-8.4c5.031,3.209,7.753,8.728,12.96,11.76c0.79-0.81,1.44-1.76,2.4-2.4
		c2.504-5.601,3.597-12.725,6.24-17.52c1.129-2.049,2.038-4.005,2.88-6.48c1.892-5.565,3.481-12.165,6.96-15.6
		c2.159-5.92,4.104-12.055,6.24-18c0.683-0.437,0.875-1.364,1.68-1.68c0.814-2.927,1.546-5.715,2.16-8.88
		c0.579-2.986,0.778-6.462,1.68-9.36c0.273-0.878,0.992-1.545,1.2-2.4c0.273-1.122,0.439-2.943,0.479-4.08
		c0.155-4.316-1.312-8.805-0.96-13.2c0.086-1.066,0.584-2.036,0.721-3.12c0.944-7.492-1.853-14.729,0.479-21.6
		c0.018-6.539-2.695-13.117-2.64-19.2c0.014-1.507,0.892-2.785-0.24-4.08c-2.557,0.656-5.013,2.381-7.68,4.08
		c-1.854,1.181-5.586,4.146-7.681,4.32c-1.791,0.149-3.68-0.998-5.279-1.92c6.4-1.52,10.305-5.535,15.359-8.4
		c-1.048-1.093-1.624-3.048-0.72-4.8c-1.067-1.237-2.598-2.521-1.92-4.8c-2.794-0.004-3.745-1.739-3.601-4.08
		C889.257,202.033,880.927,205.025,872.04,205.44z M482.28,209.52c0.14-0.86-0.711-0.73-1.44-0.72
		C480.809,209.995,481.468,209.587,482.28,209.52z M483.72,209.28c-0.307-0.013-0.332-0.308-0.72-0.24
		C482.627,209.631,483.815,209.746,483.72,209.28z M842.28,222.96c-0.148,2.336,1.11,4.43,1.68,6.48
		c0.601,2.166,0.349,4.654,1.92,6.24c3.431-1.609,4.718-5.362,6.72-8.4c0.69,0.83,3.068-0.028,3.36,1.2
		c-0.943,4.656-4.312,6.888-6,10.8c1.192,0.567,2.655,0.865,2.88,2.4c0.135,1.095-0.904,1.015-0.72,2.16
		c0.364,0.756,1.069,1.171,1.2,2.16c-0.188,0.932-0.672,1.568-1.2,2.16c0.818,1.143,1.54,2.349,1.2,4.08
		c-0.234,1.188-1.604,1.29-1.2,2.16c2.796,2.012,5.854,5.017,9.12,5.76c-0.877-7.358,1.6-14.128,0.96-21.12
		c-0.069-0.756-0.45-1.399-0.48-2.16c-0.242-6.133,2.028-12.362,0.96-18.96C855.646,219.366,848.88,221.08,842.28,222.96z
		 M45.24,240.96c0.183-0.89,0.89-1.831-0.24-2.16C44.683,239.187,44.481,240.915,45.24,240.96z M850.2,258.48
		c-0.346,0.134-0.586,0.375-0.72,0.72c2.064,6.199-0.306,14.662,1.199,22.08c0.173,0.852,0.624,1.535,0.721,2.4
		c0.187,1.674-0.245,3.577-0.24,5.52c0.015,6.002,1.461,12.967,0.72,18c-0.115,0.781-0.584,1.437-0.72,2.16
		c-0.309,1.641,0.057,3.286-0.48,4.8c1.013-0.649,0.931-2.117,1.2-3.12c0.964-3.592,2.202-7.145,2.64-10.8
		c0.104-0.869-0.103-1.74,0-2.64c0.356-3.114,1.42-6.212,2.16-9.36c0.799-3.395,1.023-6.727,1.44-10.32
		c0.514-4.432,2.356-8.595,2.64-12.96C857.42,262.62,854.317,260.042,850.2,258.48z M78.84,349.68
		c0.235,1.845,1.099,3.062,1.68,4.56c1.21-0.163,2.425,0.924,3.36,0.24C81.997,353.178,81.884,348.317,78.84,349.68z M82.92,359.52
		c0.7,0.353,0.7-1.073,0-0.72C82.92,359.04,82.92,359.28,82.92,359.52z M86.04,364.8c0.76-0.912-0.452-2.149-1.2-1.44
		C85.39,363.69,85.404,364.556,86.04,364.8z M90.6,371.76c0.382-0.768-0.031-1.361-0.96-1.44
		C89.851,370.909,89.856,371.704,90.6,371.76z M92.52,374.4c-0.233-0.967-1.048-1.352-1.68-1.92
		C91.167,373.353,91.266,374.455,92.52,374.4z M843.96,378.24c-0.463,0.977-1.654,1.225-1.92,2.4c0.938,1.654-0.81,2.495-0.96,3.84
		c1.032,1.167,2.551,1.998,4.08,2.88c1.415,0.817,3.137,2.147,4.8,2.4c1.685,0.257,3.505-0.452,5.521-0.72
		c4.692-0.624,8.7-0.808,12.479-1.68c0.886-1.274,1.811-2.51,2.4-4.08c-3.05-0.869-6.93-1.268-10.801-1.92
		c-3.906-0.658-8.147-0.716-11.04-1.68c-1.825-0.608-2.978-2.49-4.319-3.36c-0.014-0.146-0.036-0.284-0.24-0.24
		C843.96,376.8,843.96,377.52,843.96,378.24z M176.76,456c-3.804-3.318-7.75-6.488-11.28-10.08
		c-3.559-3.621-7.328-7.098-11.04-10.56c-3.645-3.4-7.164-7.066-10.8-10.561c-7.322-7.034-14.401-14.221-20.88-21.84
		c-1.673-1.968-3.582-3.655-5.28-5.52c-2.924-3.211-5.687-6.464-8.4-9.6c-3.433-3.967-6.927-7.76-10.56-11.52c-0.16,0-0.32,0-0.48,0
		c-1.326,0.594-2.846,0.994-4.32,1.44c0.111,1.219,1.05,1.918,1.68,2.88c0.609,0.931,1.001,2.009,1.68,2.88
		c0.615,0.789,1.55,1.38,2.16,2.16c3.829,4.897,6.081,10.741,9.36,16.32c3.857,3.379,5.128,9.024,7.92,13.44
		c0.79,1.249,2.264,1.99,2.4,3.6c4.375,4.35,7.408,10.006,11.28,14.4c1.641,1.862,3.297,3.057,4.8,4.8
		c1.806,2.095,3.427,4.614,5.04,6.96c1.652,2.403,3.436,4.731,5.04,7.2c4.298,3.72,7.371,9.757,10.8,13.92
		c1.543,1.872,2.86,3.08,4.32,4.8c3.167,3.729,5.929,8.213,8.88,11.52c0.769,0.862,1.432,1.847,1.92,2.16
		c1.545,0.994,4.746,0.228,6.72,0.72c1.374,0.344,1.965,1.085,3.36,1.681c1.104-1.456,2.56-2.561,3.84-3.84
		c1.25-1.25,2.242-2.973,4.08-3.601c1.969,1.047,0.901,3.63,0.24,4.8c-1.337,2.367-5.214,4.09-5.76,6.721
		c2,0.319,3.116,1.523,3.6,3.359c1.714,0.366,2.955,1.206,3.36,2.88c2.061-0.221,2.245,1.436,3.84,1.681
		c3.668-1.98,7.596-3.854,11.04-5.76c1.139-0.631,2.605-1.291,3.36-2.4c-0.35-1.33-1.931-1.429-3.12-1.92
		c-0.378-0.662-0.669-1.41-0.96-2.16c-2.002,0.302-2.204-1.977-3.84-2.16c-0.576-0.064-2.174,0.773-3.36,1.2
		c-3.645,1.312-7.306,3.064-10.8,2.88c0.102-1.498,1.557-1.643,2.4-2.399c0.597-0.284,0.241-1.52,0.96-1.681
		c5.171-0.028,6.447-3.953,8.16-7.439C191.063,470.211,184.341,462.613,176.76,456z M836.28,400.08c0.89,1.595,4.018,3.731,3.84,6
		c-0.128,1.625-1.461,1.675-2.64,2.88c0.554,0.565,1,1.239,0.96,2.4c-0.091,1.109-1.408,0.992-1.681,1.92
		c-0.17,0.89,0.41,1.029,0.24,1.92c-0.236,1.203-1.658,1.222-1.92,2.399c1.177,1.52-0.438,2.431-0.72,3.841
		c0.933,0.827,1.828,1.69,3.359,1.92c2.784-3.057,4.959-6.722,8.641-8.88c5.232-5.088,8.576-12.063,14.399-16.561
		c0.818-2.397,3.895-3.765,3.84-6.24c-4.095,0.065-6.906,1.413-11.279,1.2c-0.303,2.912,4.07,3.541,2.64,6
		c-2.649-1.775-5.104-3.633-7.92-5.28c-2.757-1.612-5.555-3.495-8.64-4.8c-0.16,0-0.32,0-0.48,0
		C838.537,393.058,837.031,396.192,836.28,400.08z M825.72,403.44c0.312-0.319,0.316-0.894-0.239-0.96
		C825.45,403.081,825.021,403.231,825.72,403.44z M821.16,409.68c-0.314,2.168-2.721,3.517-2.4,5.521
		c0.833-0.928,1.299-2.222,2.88-2.4c-1.132-2.542,1.427-3.544,1.2-5.04C822.552,408.672,821.889,409.209,821.16,409.68z
		 M816.6,418.32c-1.239,0.775-1.299,2.369-1.92,3.6c-0.454,0.901-1.145,1.566-1.68,2.4c-2.205,3.434-4.191,6.775-6.24,10.08
		c-1.046,1.687-1.856,3.564-2.88,5.279c-0.938,1.572-2.404,2.975-3.6,4.561c-4.095,5.432-7.813,11.947-11.761,16.8
		c-1.896,2.331-3.533,4.69-5.279,6.96c-2.42,3.146-4.425,6.402-6.96,9.36c-5.074,5.919-9.75,12.019-14.16,18.479
		c3.408-2.462,6.38-5.512,9.6-7.92c5.758-4.305,9.845-9.987,15.84-13.92c2.812-2.953,6.069-5.491,8.16-9.12
		c1.896-3.288,3.74-6.226,5.761-9.12c0.672-0.964,1.571-1.915,2.159-2.88c1.631-2.676,2.618-5.737,4.32-8.399
		c0.793-1.241,1.538-2.57,2.4-3.841c0.843-1.241,2.136-2.335,2.88-3.6c0.813-1.383,0.961-3.119,2.399-4.08
		c-0.17-0.89,0.41-1.03,0.24-1.92c2.181-3.5,4.762-6.598,6.24-10.8C820.453,419.428,818.326,419.074,816.6,418.32z M827.88,423.12
		c-2.931,4.829-5.787,9.733-8.88,14.399c0.117,0.758-0.433,0.848-0.24,1.681c-3.175,5.064-6.94,9.539-9.6,15.12
		c3.664-2.336,5.729-6.271,9.6-8.4c2.328-2.521,4.355-5.185,6.48-7.92c2.074-2.671,4.214-5.428,6.96-7.44
		c0.614-1.625,2.039-2.44,2.88-3.84C832.853,425.348,830.923,423.677,827.88,423.12z M211.08,464.64c-0.24,0-0.48,0-0.72,0
		c-2.555,3.766-4.762,7.879-7.2,11.761c1.073,0.526,1.281,1.918,2.88,1.92c2.683-2.497,5.718-8.738,10.8-5.761
		c-2.623,1.617-4.52,3.961-6.24,6.48c0.771,0.909,1.948,1.412,2.16,2.88c1.898,0.183,2.976,1.185,3.36,2.88
		c1.555-0.035,1.944,1.097,3.12,1.44c0.873-0.254,2.394-1.117,3.12-0.721c-0.452,0.988-1.267,1.613-1.68,2.641
		c3.434,1.661,6.247-2.419,9.84-2.88C224.408,478.032,217.036,472.044,211.08,464.64z M209.64,478.56
		c-0.359,0.041-0.886-0.085-0.96,0.24C209.039,478.759,209.566,478.886,209.64,478.56z M199.08,481.44
		c1.073-0.127,2.004-0.396,2.4-1.2C200.491,479.614,199.641,480.871,199.08,481.44z M265.32,527.28
		c-6.241-9.45-13.407-18.287-20.88-26.16c-4.048-4.265-7.266-9.199-11.52-13.2c-0.609-0.054-0.666,0.346-0.96,0.48
		c-3.313,1.51-7.521,2.602-9.84,5.04c4.051,4.858,9.783,7.933,14.4,12.239c4.639,4.328,9.718,8.206,14.64,12.24
		c1.062,1.996,2.535,2.84,4.08,4.32c0.906,0.867,1.92,1.854,2.88,2.64c5.11,4.185,9.629,9.094,14.4,13.2
		c0.92,0.791,1.616,1.975,2.88,2.16C272.199,535.749,268.333,531.842,265.32,527.28z M772.68,493.68
		c-1.598,1.404-3.174,2.929-4.8,4.32c-1.619,1.387-4.085,2.345-4.56,4.8c1.663,1.071,2.673-0.753,3.6-1.68
		c0.953-0.953,2.302-1.891,3.12-2.88c0.576-0.696,0.89-1.743,1.44-2.4c0.682-0.814,1.881-1.009,1.92-2.16
		C773.16,493.68,772.92,493.68,772.68,493.68z M211.8,494.4c-3.159,1.509-6.39,3.536-9.6,5.279c-3.043,1.652-6.531,2.725-8.64,5.28
		c1.574,2.986,4.978,4.143,6.96,6.72c2.479,0.879,4.333,2.75,6.24,4.32c3.269,2.691,6.601,5.271,9.6,7.92
		c6.284,2.516,9.105,8.495,14.64,11.76c0.032,0.928,0.974,0.947,1.2,1.681c1.992,0.743,3.153,1.909,4.56,3.12
		c3.804,3.273,7.334,6.752,11.04,9.84c4.175,3.479,7.262,6.939,10.8,11.04c2.164,2.507,5.017,4.585,7.44,6.96
		c3.619,3.547,6.703,7.43,10.32,10.56c1.135,0.982,2.491,1.834,3.6,2.88c1.144,1.079,2.084,2.287,3.12,3.36
		c1.059,1.097,2.25,2.466,3.36,2.64c0.786-2.574,0.274-6.446,1.92-8.16c2.004,2.076,2.757,5.403,2.64,9.601
		c3.134-2.626,6.399-5.121,8.88-8.4c-0.762-0.818-2.059-1.903-1.2-3.6c-2.004-0.224-3.497-1.735-2.64-4.08
		c-2.226,0.24-3.024-0.736-3.12-1.92c-0.143-1.759,1.936-2.236,1.68-3.36c-1.694,0.303-3.348,0.27-4.8-0.24
		c-1.225-1.254-0.951-4.009-1.44-6c-3.81,0.264-10.246,1.985-9.6-3.359c2.724,0.942,6.108,0.589,9.12,0
		c-0.582-2.619-3.677-3.764-5.52-5.521c-0.962-0.917-1.979-1.99-2.88-2.88c-3.022-2.982-6.153-5.694-9.36-8.399
		c-5.042-4.254-9.543-9.584-14.4-13.681c-4.071-3.434-7.754-7.323-11.76-10.56c-3.417-2.761-6.363-5.765-9.6-8.4
		c-1.607-1.309-3.373-2.552-5.04-3.84c-3.409-2.634-6.412-5.625-9.84-8.16c-3.218,4.941-6.963,9.357-9.84,14.641
		c-4.027-2.706-0.453-6.019,1.68-9.12c1.57-2.283,2.928-4.355,3.84-6C213.637,496.083,212.613,495.347,211.8,494.4z M752.52,510
		c0.219,1.222,1.379,1.502,1.44,2.88c0.134,1.06-1.44,1.265-0.72,2.16c1.45,0.415,2.305-1.26,3.12-2.16
		c1.911-2.113,4.074-4.217,5.04-6.72C757.305,504.767,754.636,507.926,752.52,510z M747.48,523.44c1.193-0.167,1.297-1.423,1.68-2.4
		c-0.4,0-0.8,0-1.2,0C747.595,521.635,747.9,522.9,747.48,523.44z M744.6,524.64c0.063,2.623-1.524,3.596-3.84,3.841
		c0.133,0.747,0.196,1.563,0.48,2.159c2.097-1.823,4.172-3.667,5.52-6.239C745.832,524.271,745.588,524.828,744.6,524.64z
		 M725.64,533.04c0.701-0.769,1.089-1.783,1.681-2.4c1.009-1.054,2.436-1.471,2.399-2.88c-0.033-1.306-1.457-2.175-2.64-2.88
		c-3.469,2.038-7.771,4.104-11.28,6c-1.223,0.661-2.673,1.04-3.84,1.68c-0.609,0.335-1.046,1.029-1.68,1.44
		c-0.68,0.44-1.956,0.365-1.92,1.44c1.477,0.202,2.664,0.695,4.56,0.479c1.946,1.174,3.537,2.703,5.521,3.84
		C719.846,538,723.28,535.628,725.64,533.04z M730.2,535.92c0.546-0.174,1.226-0.214,1.68-0.479
		c-0.383-1.823,1.123-1.758,1.44-2.881C731.725,533.124,731.076,534.637,730.2,535.92z M706.44,536.64
		c-0.447-0.144-1.006-0.319-1.2-0.239c-2.671,1.088-5.194,2.954-7.92,4.56c-2.452,1.444-4.826,3.148-7.44,4.56
		c-5.11,2.76-10.372,5.874-15.12,8.881c-4.954,3.137-9.975,6.111-14.399,9.6c-4.748,3.743-9.738,6.853-14.4,9.6
		c-2.292,2.952-6.174,4.15-9.36,6.24c-1.315,0.863-2.568,2.009-3.84,2.88c-1.273,0.874-3.126,1.526-3.6,3.12
		c2.202,1.495,6.364,1.98,9.12,2.16c-1.446,4.734-7.234,1.324-10.8,0.72c-1,1.401-0.953,3.959-2.881,4.561
		c-1.605,0.501-3.045-0.344-4.8-0.721c-0.569,1.07,1.356,1.451,0.96,3.12c-0.44,1.072-2.23,1.555-3.6,0.96
		c-0.111,2.05-1.147,3.173-3.601,2.88c0.335,2.096-1.529,1.991-2.159,3.12c4.099,6.75,9.064,13.362,12.96,19.92
		c0.573,0.966,0.914,2.217,1.92,2.881c2.099-0.381,2.545-2.416,4.56-2.881c0.583-1.456,1.803-1.835,2.88-2.64
		c2.208-1.649,4.677-3.207,6.96-4.56c1.892-1.121,3.105-2.077,4.561-3.12c1.146-0.822,1.87-1.15,2.64-1.92
		c0.326-0.326,0.646-0.447,0.96-0.721c2.963-2.574,6.354-4.871,9.12-7.199c2.033-2.912,4.813-5.128,7.44-7.44
		c2.646-2.33,5.167-4.75,7.92-6.96c1.66-3.066,4.582-5.062,6.96-7.44c2.399-2.399,4.613-4.985,7.2-7.199
		c1.673-3.515,4.97-5.931,7.439-8.4c0.893-0.893,2.085-1.757,2.88-2.64c0.589-0.654,0.819-1.715,1.44-2.4
		c0.598-0.66,1.597-0.987,2.16-1.68c0.542-0.668,0.689-1.749,1.199-2.4c1.794-2.29,4.394-4.432,6.48-6.479
		c2.278-2.236,4.576-4.194,6.72-6.48C713.631,540.557,709.582,537.654,706.44,536.64z M719.88,545.76
		c-6.625,8.015-14.789,14.491-20.88,23.04c1.497-0.91,2.938-2.006,4.32-3.12c0.697-0.562,1.198-1.337,1.92-1.92
		c0.727-0.587,1.731-0.835,2.399-1.439c0.751-0.681,1.144-1.7,1.92-2.4c1.329-1.197,3.069-2.214,4.561-3.36
		c2.435-1.87,5.12-3.453,6.72-5.76c1.34-0.34,2.054-1.307,2.4-2.64C722.348,547.133,721.433,546.127,719.88,545.76z M317.16,586.32
		c1.082,0.707,2.355,1.99,3.84,3.6c1.792,1.941,3.087,5.296,5.52,3.12c-0.394-1.767-2.186-2.134-3.36-3.12
		c-3.872-4.368-8.323-8.156-12.72-12C312.261,581.139,314.959,583.481,317.16,586.32z M314.28,590.88
		c-0.277-0.288-0.721-0.674-0.96-0.96c-0.637-0.764-0.811-1.81-1.44-2.64c-1.688-2.23-4.277-4.005-6-6.24
		c-4.445,4.435-9.741,8.019-13.92,12.72c1.649,2.671,8.133,0.507,9.6,3.36c-0.024,0.744,0.293,1.146,0.48,1.68
		c1.878,0.202,2.864,1.296,3.36,2.88c0.98,0.38,1.916,0.805,2.4,1.681c0.201,0.519,0.622,0.818,0.48,1.68
		c1.073,0.288,1.677,1.043,2.64,1.44c3.135-2.865,6.917-5.084,10.08-7.921c-2.458,0.183-3.588,1.692-5.52,2.4
		c0.603-1.049,0.241-1.69,0.24-3.12c0.562-1.117,1.873-1.486,3.12-1.92C317.853,593.735,315.659,592.314,314.28,590.88z
		 M327.72,598.08c0.254-0.608-0.505-1.368-0.72-0.72C327.453,597.387,327.167,598.153,327.72,598.08z M328.44,598.8
		c2.868,2.732,5.327,5.873,8.4,8.4c0.11-0.851,0.534-1.387,0.48-2.4c-1.716-0.443-3.216-1.104-3.36-3.12
		c-1.871-0.129-2.838-1.162-3.36-2.64C329.686,599.337,328.104,598.207,328.44,598.8z M323.88,601.2
		c-1.802,1.349-3.796,2.955-6.24,4.8c-1.583,1.194-5.03,3.08-5.76,4.08c-0.42,0.574-0.829,1.373-0.72,2.16
		c2.852,3.308,6.469,5.851,9.6,8.88c1.675,0.588,3.173,1.746,4.56,2.88c1.356,1.109,2.438,2.943,4.08,3.12
		c-1.758-6.384,3.821-9.194,4.8-14.4C331.209,608.432,326.879,605.48,323.88,601.2z M619.8,622.56
		c-4.202-7.717-9.219-14.62-14.399-21.359c-1.776,0.957-3.521,1.886-5.28,2.88c-1.479,0.836-2.807,1.94-4.32,2.88
		c-2.127,1.32-4.479,2.296-6.72,3.6c-2.173,1.266-4.609,2.298-6.72,3.601c-1.304,0.805-2.282,1.968-3.601,2.64
		c-3.021,1.539-5.783,2.716-8.399,4.32c-1.334,0.817-2.862,1.553-4.08,2.399c-1.262,0.877-2.296,1.863-3.601,2.641
		c-2.74,1.633-5.416,3.16-7.92,4.8c-1.301,0.853-2.815,1.53-4.08,2.4c-0.723,0.496-1.189,1.395-1.92,1.92
		c-2.232,1.604-4.926,2.492-7.2,4.08c-3.703,2.585-6.978,5.589-10.319,8.159c-1.361,1.048-2.707,2.269-4.08,3.36
		c-2.064,1.642-4.488,3.155-6.24,4.8c-0.613,0.576-0.968,1.51-1.68,2.16c-2.822,2.576-6.802,3.795-8.88,7.2
		c1.147,1.572,4.728,0.713,5.52,2.64c-0.895,2.336-3.431,1.793-6.479,1.681c-0.145,0.918-0.046,2.398-1.2,2.88
		c-0.988,0.188-1.231-0.369-2.16-0.24c-0.355,1.805-1.665,2.655-4.08,2.4c-0.188,0.771-0.329,1.591-0.72,2.159
		c-0.518,0.603-1.878,0.362-2.16,1.2c2.006,5.514,4.31,10.73,7.2,15.36c-5.47-0.893-6.418-5.177-8.4-9.601
		c-1.02-2.273-1.627-4.801-3.12-6.479c-1.53,0.712-2.558,2.077-3.84,3.12c-2.398,1.95-5.363,3.203-7.92,5.04
		c-2.508,1.802-4.747,3.883-7.2,5.76c-4.367,3.342-9.598,5.863-13.92,9.36c-0.518,0.419-0.875,1.032-1.44,1.439
		c-4.049,2.923-8.568,5.311-10.8,9.84c0.479,1.249,1.462,1.46,1.68,2.881c0.261,1.706-1.264,3.517-0.24,4.8
		c-0.531,0.669-1.144,1.256-1.2,2.399c2.074,0.074,3.965-0.034,5.52-0.479c1.364,0.905,3.64-0.485,4.08,1.439
		c-2.42,2.934-8.796,2.942-13.92,2.4c-0.357,1.163-0.798,2.242-1.68,2.88c0.367,3.153,0.548,6.492,1.2,9.36
		c2.033-0.229,3.713-1.55,5.52-2.4c1.762-0.83,3.779-1.591,5.28-2.64c1.193-0.834,1.97-1.905,3.12-2.641
		c5.025-3.213,10.851-5.931,15.6-9.119c2.348-2.585,5.468-4.413,8.4-6.24c2.304-1.437,4.768-2.703,6.96-4.08
		c1.714-1.077,2.833-2.422,4.08-3.36c0.696-0.524,1.61-0.737,2.4-1.2c4.746-2.783,9.426-5.51,14.159-8.159
		c0.258-0.544,0.545-1.056,0.96-1.44c5.317-3.483,10.149-7.451,15.36-11.04c1.14-2.237,3.088-3.328,5.04-4.8
		c3.033-2.286,6.376-4.189,9.36-6.24c0.676-0.464,1.652-0.776,2.16-1.2c0.676-0.564,1.041-1.398,1.68-1.92
		c4.493-3.67,10.514-5.642,15.84-8.399c2.561-2.602,6.236-4.123,9.84-5.761c2.659-1.208,5.489-2.305,8.16-3.359
		c1.012-2.189,4.032-2.368,5.52-4.08c-1.759-2.053-4.371-2.97-6.72-4.32c-2.353-1.352-4.785-2.737-7.2-4.08
		c-3.607-2.006-7.115-4.617-10.56-6.24c-1.085-0.511-3.611-0.55-3.12-2.64c6.152,0.104,10.176,2.639,13.92,4.8
		c5.628,3.249,10.789,6.184,16.32,9.36c0.512-0.769,0.545-2.015,0.96-2.88c-4.447-1.266-8.438-4.222-12.72-5.76
		c-1.285-0.462-3.373-0.023-3.841-1.921c3.988-1.788,9.311,0.482,12,1.681c3.095,1.378,6.18,2.694,8.881,3.84
		c0.969-0.433,1.848-0.977,3.119-0.48c0.529-1.922,2.089-3.087,4.561-2.399c-0.146-3.216-1.65-5.893-2.16-8.88
		c-0.17-0.993-1.283-2.24,0-2.88c1.741,0.179,2.722,1.118,3.6,2.159c0.751,3.97,2.482,6.958,3.36,10.801
		c2.785-0.784,5.184-2.347,7.2-3.601c0.737-0.458,1.871-0.758,2.16-1.68c-0.871-3.176-3.912-6.585-2.88-10.08
		c1.8,0.119,2.908,0.931,3.84,1.92c0.168,2.393,1.479,3.64,2.16,5.521c2.895-1.426,5.56-3.08,7.68-5.28
		C623.424,624.856,622.057,623.264,619.8,622.56z M386.04,661.2c0.535-3.041,1.753-8.027,1.2-11.04
		c-0.479-2.612-3.685-5.765-5.521-8.16c-4.442-5.798-7.806-10.314-12.72-14.88c-2.372-2.204-4.529-4.574-6.96-6.96
		c-2.985-2.931-6.921-5.031-10.08-7.92c-3.307-3.024-6.556-5.843-9.84-8.16c-0.24,0-0.48,0-0.72,0
		c-0.477,2.403-1.584,4.176-2.16,6.479c3.064,3.983,6.525,7.514,9.6,11.521c1.536,2.002,2.938,4.085,4.56,6
		c1.639,1.935,3.478,3.765,5.04,5.76c3.093,3.95,5.536,8.374,8.64,12.48c3.099,4.1,5.963,8.572,7.92,13.439
		c2.132,2.792,4.692,5.604,6.48,8.4c0.619,0.968,0.787,2.558,2.16,2.88C384.737,668.112,385.42,664.721,386.04,661.2z
		 M362.28,648.72c-0.266-0.454-0.306-1.134-0.48-1.68c-3.718-5.54-8.326-10.272-12.24-15.6c-3.898-5.308-8.762-9.887-12.24-15.601
		c-0.24,0-0.48,0-0.72,0c-0.924,2.106-1.982,3.703-3.36,6.24c-0.893,1.644-3.053,4.572-2.88,6c0.071,0.583,1.001,1.574,1.92,2.4
		c1.686,1.514,3.322,2.401,5.04,3.6c5.825,4.061,10.41,9.086,15.6,13.2c6.556,5.196,12.134,12.148,18.96,16.56
		C368.856,658.624,365.569,653.671,362.28,648.72z M579.48,658.08c-2.562,1.415-4.805,3.222-7.44,4.32
		c-2.871,1.196-5.557,2.311-8.16,3.6c-2.584,1.28-4.707,3.041-7.2,4.56c-3.985,2.43-8.281,4.103-12,6.721
		c-1.801,1.268-3.26,2.932-5.04,4.319c-3.634,2.834-7.722,5.08-11.04,7.92c-1.655,1.418-3.084,3.125-4.8,4.561
		c-3.438,2.877-7.646,4.98-11.52,7.439c-1.838,1.167-3.744,2.521-5.521,3.841c-1.901,1.412-3.587,2.468-5.76,3.6
		c-4.03,2.101-8.354,4.467-11.76,7.2c-0.92,0.737-1.494,1.531-2.4,2.16c-0.946,0.656-2.051,1.038-3.12,1.68
		c-5.956,3.573-11.332,7.559-16.8,11.52c5.018,2.627,5.807,8.804,7.68,14.641c0.518,1.613,1.153,3.208,1.68,4.8
		c0.552,1.667,0.685,3.616,1.92,4.8c2.503-1.023,4.805-2.821,6.96-4.56c0.736-0.595,1.775-1.052,2.399-1.681
		c0.949-0.955,1.373-2.212,2.4-3.119c3.589-3.17,7.917-5.822,11.28-8.881c1.178-1.07,1.984-2.318,3.12-3.6
		c2.015-2.272,4.646-4.453,6.96-6.479c2.429-2.128,4.929-4.094,7.439-6c2.144-3.491,5.756-5.464,8.88-7.921
		c2.396-1.884,4.497-3.896,6.96-5.52c0.188-1.014,0.934-1.466,1.2-2.4c4.712-3.768,8.446-8.514,12.96-12.479
		c0.037-1.084,0.84-1.4,0.96-2.4c2.719-2.299,5.06-5.228,7.92-7.68c2.134-1.829,4.291-3.584,6-5.521
		c3.404-3.854,8.671-6.974,12.721-10.079c0.807-0.619,2.061-1.157,2.64-1.681c0.889-0.803,1.304-1.952,2.16-2.64
		c0.949-0.762,2.625-1.497,4.32-2.64c1.365-0.922,3.624-2.335,3.84-3.12c0.271-0.99-0.294-2.711-0.96-3.36
		C585.528,655.407,582.293,656.525,579.48,658.08z M386.76,673.92c0.769,0.271,1.592,0.488,2.64,0.48
		c1.565,1.634,2.556,3.844,4.56,5.04c0.628,2.011,2.112,3.167,3.6,4.319c2.19-0.77,4.528-1.393,6.48-2.399
		c0.75-4.999-2.221-7.527-1.92-11.28c1.225-0.256,1.888,1.3,2.64,0.72c-5.453-4.866-9.152-11.487-14.4-16.56
		C389.646,661.286,388.089,667.488,386.76,673.92z M407.64,680.16c1.248-0.112,2.01-0.71,3.12-0.96
		c-1.591-2.489-2.838-5.322-5.04-7.2C406.997,674.084,407.515,676.926,407.64,680.16z M425.16,697.68
		c-1.58-1.935-3.455-3.477-4.8-5.52c-2.168-3.293-4.007-6.715-6.72-9.601c-2.231,0.409-3.905,1.376-6,1.921
		c0.186,5.546-0.337,10.382-0.24,15.84c0.88,0,1.76,0,2.64,0c0.45,0.635,1.07,0.62,1.68,1.199c0.538,0.512,0.67,1.515,1.2,1.921
		c0.594,0.454,1.578,0.253,2.16,0.72c0.67,0.536,1.306,1.453,1.44,2.399c1.565,0.275,2.219,1.462,3.36,2.16
		c3.206-1.834,6.931-3.149,9.84-5.279C428.259,701.477,426.73,699.604,425.16,697.68z M403.56,685.68
		c-2.571,1.35-6.174,1.667-8.16,3.601c0.908,1.732,2.525,2.954,3.84,4.319c0.682,0.709,1.257,1.409,1.92,2.16
		c0.605,0.687,1.434,1.651,2.4,1.92c0.865-3.295,0.312-8.008,0.72-11.76C403.973,685.907,403.948,685.612,403.56,685.68z
		 M431.64,707.28c-2.111,1.252-4.651,2.449-6.96,3.6c-2.181,1.087-4.479,1.839-6,3.601c4.173-0.666,7.982-3.059,11.04-4.801
		c0.957-0.545,3.043-0.864,2.64-2.399C432.12,707.28,431.88,707.28,431.64,707.28z M421.32,717.12
		c-0.339,0.866,0.782,1.259,1.2,1.68c1.784,1.795,3.666,3.125,5.52,4.8c2.431,2.196,4.599,4.658,6.96,6.96
		c1.753,1.71,3.919,3.169,6,4.32c-1.076-5.084,0.161-12.481-2.88-15.6c0-0.48,0-0.96,0-1.44c-1.741-0.099-2.678-1.002-2.88-2.64
		c-0.702-0.293-1.86,0.19-2.4-0.72c-0.573-0.388,0.195-2.115-0.72-2.16C428.768,714.168,425.106,715.706,421.32,717.12z
		 M465.72,732.24c-0.013-0.146-0.036-0.284-0.24-0.24c-5.745,3.215-11.46,6.46-16.8,10.08c1.454,2.346,4.085,4.086,6.24,5.52
		c2.53,1.684,4.024,4.808,6.72,6c0.018,1.507,1.027,2.561,1.68,3.601c0.67,1.067,1.21,2.244,2.16,3.12
		c0.9-0.54,0.899-1.981,2.16-2.16c0.501-0.379,1.593-0.166,2.16-0.48c0.236-2.004,1.633-2.847,3.6-3.12
		C471.163,746.797,469.323,738.637,465.72,732.24z"/>
</g>
</svg>
